<svg width="24" height="32" viewBox="0 0 24 32" fill="none" xmlns="http://www.w3.org/2000/svg">
<path d="M12 31.9999C11.6938 32.0022 11.3946 31.9087 11.144 31.7325C10.8933 31.5562 10.7038 31.3059 10.6017 31.0165C9.03652 26.6907 3.19827 20.2149 3.13566 20.1469L3.09913 20.0998C1.54178 18.3731 0.517571 16.2304 0.150716 13.9316C-0.216138 11.6328 0.0901156 9.27674 1.03234 7.14901C1.97457 5.02128 3.5123 3.21332 5.45906 1.94437C7.40581 0.675425 9.67797 0 12 0C14.322 0 16.5942 0.675425 18.5409 1.94437C20.4877 3.21332 22.0254 5.02128 22.9677 7.14901C23.9099 9.27674 24.2161 11.6328 23.8493 13.9316C23.4824 16.2304 22.4582 18.3731 20.9009 20.0998L20.8643 20.1469C20.8017 20.2149 14.9635 26.6907 13.3983 31.0165C13.2969 31.3064 13.1075 31.5571 12.8567 31.7335C12.6059 31.9098 12.3063 32.003 12 31.9999Z" fill="white"/>
<path d="M23 12.0239C23 9.10015 21.8411 6.29619 19.7782 4.22881C17.7153 2.16144 14.9174 1 12 1C9.08262 1 6.28472 2.16144 4.22182 4.22881C2.15892 6.29619 1 9.10015 1 12.0239C1.00008 14.7731 2.03011 17.4221 3.88619 19.4466C3.88619 19.4466 9.92571 26.1082 11.5914 30.7014C11.6211 30.7885 11.6772 30.8641 11.7518 30.9177C11.8265 30.9712 11.916 31 12.0079 31C12.0997 31 12.1892 30.9712 12.2639 30.9177C12.3385 30.8641 12.3946 30.7885 12.4243 30.7014C14.09 26.1082 20.1243 19.4466 20.1243 19.4466C21.977 17.4208 23.0033 14.7718 23 12.0239Z" fill="#7390DA"/>
<g clip-path="url(#clip0_1_9536)">
<circle cx="12" cy="12" r="9" fill="#7390DA"/>
<path d="M14.7778 6H9.22222C7.55556 6 7 7.074 7 8.4V17C7 17.5523 7.44772 18 8 18H16C16.5523 18 17 17.5523 17 17V8.4C17 7.074 16.4444 6 14.7778 6ZM10.8889 15.15H9.22222C8.99444 15.15 8.80556 14.946 8.80556 14.7C8.80556 14.454 8.99444 14.25 9.22222 14.25H10.8889C11.1167 14.25 11.3056 14.454 11.3056 14.7C11.3056 14.946 11.1167 15.15 10.8889 15.15ZM10.8889 12.45H9.22222C8.99444 12.45 8.80556 12.246 8.80556 12C8.80556 11.754 8.99444 11.55 9.22222 11.55H10.8889C11.1167 11.55 11.3056 11.754 11.3056 12C11.3056 12.246 11.1167 12.45 10.8889 12.45ZM10.8889 9.75H9.22222C8.99444 9.75 8.80556 9.546 8.80556 9.3C8.80556 9.054 8.99444 8.85 9.22222 8.85H10.8889C11.1167 8.85 11.3056 9.054 11.3056 9.3C11.3056 9.546 11.1167 9.75 10.8889 9.75ZM14.7778 15.15H13.1111C12.8833 15.15 12.6944 14.946 12.6944 14.7C12.6944 14.454 12.8833 14.25 13.1111 14.25H14.7778C15.0056 14.25 15.1944 14.454 15.1944 14.7C15.1944 14.946 15.0056 15.15 14.7778 15.15ZM14.7778 12.45H13.1111C12.8833 12.45 12.6944 12.246 12.6944 12C12.6944 11.754 12.8833 11.55 13.1111 11.55H14.7778C15.0056 11.55 15.1944 11.754 15.1944 12C15.1944 12.246 15.0056 12.45 14.7778 12.45ZM14.7778 9.75H13.1111C12.8833 9.75 12.6944 9.546 12.6944 9.3C12.6944 9.054 12.8833 8.85 13.1111 8.85H14.7778C15.0056 8.85 15.1944 9.054 15.1944 9.3C15.1944 9.546 15.0056 9.75 14.7778 9.75Z" fill="white"/>
</g>
<defs>
<clipPath id="clip0_1_9536">
<rect width="18" height="18" fill="white" transform="translate(3 3)"/>
</clipPath>
</defs>
</svg>
