<svg width="18" height="18" viewBox="0 0 18 18" fill="none" xmlns="http://www.w3.org/2000/svg">
<g clip-path="url(#clip0_1_9423)">
<circle cx="9" cy="9" r="9" fill="#7390DA"/>
<path d="M11.7778 3H6.22222C4.55556 3 4 4.074 4 5.4V14C4 14.5523 4.44772 15 5 15H13C13.5523 15 14 14.5523 14 14V5.4C14 4.074 13.4444 3 11.7778 3ZM7.88889 12.15H6.22222C5.99444 12.15 5.80556 11.946 5.80556 11.7C5.80556 11.454 5.99444 11.25 6.22222 11.25H7.88889C8.11667 11.25 8.30556 11.454 8.30556 11.7C8.30556 11.946 8.11667 12.15 7.88889 12.15ZM7.88889 9.45H6.22222C5.99444 9.45 5.80556 9.246 5.80556 9C5.80556 8.754 5.99444 8.55 6.22222 8.55H7.88889C8.11667 8.55 8.30556 8.754 8.30556 9C8.30556 9.246 8.11667 9.45 7.88889 9.45ZM7.88889 6.75H6.22222C5.99444 6.75 5.80556 6.546 5.80556 6.3C5.80556 6.054 5.99444 5.85 6.22222 5.85H7.88889C8.11667 5.85 8.30556 6.054 8.30556 6.3C8.30556 6.546 8.11667 6.75 7.88889 6.75ZM11.7778 12.15H10.1111C9.88333 12.15 9.69444 11.946 9.69444 11.7C9.69444 11.454 9.88333 11.25 10.1111 11.25H11.7778C12.0056 11.25 12.1944 11.454 12.1944 11.7C12.1944 11.946 12.0056 12.15 11.7778 12.15ZM11.7778 9.45H10.1111C9.88333 9.45 9.69444 9.246 9.69444 9C9.69444 8.754 9.88333 8.55 10.1111 8.55H11.7778C12.0056 8.55 12.1944 8.754 12.1944 9C12.1944 9.246 12.0056 9.45 11.7778 9.45ZM11.7778 6.75H10.1111C9.88333 6.75 9.69444 6.546 9.69444 6.3C9.69444 6.054 9.88333 5.85 10.1111 5.85H11.7778C12.0056 5.85 12.1944 6.054 12.1944 6.3C12.1944 6.546 12.0056 6.75 11.7778 6.75Z" fill="white"/>
</g>
<defs>
<clipPath id="clip0_1_9423">
<rect width="18" height="18" fill="white"/>
</clipPath>
</defs>
</svg>
