<svg width="24" height="32" viewBox="0 0 24 32" fill="none" xmlns="http://www.w3.org/2000/svg">
<path d="M12 31.9999C11.6938 32.0022 11.3946 31.9087 11.144 31.7325C10.8933 31.5562 10.7038 31.3059 10.6017 31.0165C9.03652 26.6907 3.19827 20.2149 3.13566 20.1469L3.09913 20.0998C1.54178 18.3731 0.517571 16.2304 0.150716 13.9316C-0.216138 11.6328 0.0901156 9.27674 1.03234 7.14901C1.97457 5.02128 3.5123 3.21332 5.45906 1.94437C7.40581 0.675425 9.67797 0 12 0C14.322 0 16.5942 0.675425 18.5409 1.94437C20.4877 3.21332 22.0254 5.02128 22.9677 7.14901C23.9099 9.27674 24.2161 11.6328 23.8493 13.9316C23.4824 16.2304 22.4582 18.3731 20.9009 20.0998L20.8643 20.1469C20.8017 20.2149 14.9635 26.6907 13.3983 31.0165C13.2969 31.3064 13.1075 31.5571 12.8567 31.7335C12.6059 31.9098 12.3063 32.003 12 31.9999Z" fill="white"/>
<path d="M23 12.0239C23 9.10015 21.8411 6.29619 19.7782 4.22881C17.7153 2.16144 14.9174 1 12 1C9.08262 1 6.28472 2.16144 4.22182 4.22881C2.15892 6.29619 1 9.10015 1 12.0239C1.00008 14.7731 2.03011 17.4221 3.88619 19.4466C3.88619 19.4466 9.92571 26.1082 11.5914 30.7014C11.6211 30.7885 11.6772 30.8641 11.7518 30.9177C11.8265 30.9712 11.916 31 12.0079 31C12.0997 31 12.1892 30.9712 12.2639 30.9177C12.3385 30.8641 12.3946 30.7885 12.4243 30.7014C14.09 26.1082 20.1243 19.4466 20.1243 19.4466C21.977 17.4208 23.0033 14.7718 23 12.0239Z" fill="#DD8E18"/>
<g clip-path="url(#clip0_1_9544)">
<circle cx="12" cy="12" r="9" fill="#DD8E18"/>
<path d="M12.1816 12.2649L12.1816 16.9999" stroke="white" stroke-linecap="round" stroke-linejoin="round"/>
<path d="M11.6679 13.1798C9.95712 13.2418 6.42853 12.398 6 8.52686C8.16375 8.41965 12.3266 9.20015 11.6679 13.1798Z" fill="white" stroke="white" stroke-linejoin="round"/>
<path d="M12.3321 13.1798C14.0429 13.2418 17.5715 12.398 18 8.52686C15.8362 8.41965 11.6734 9.20015 12.3321 13.1798Z" fill="white" stroke="white" stroke-linejoin="round"/>
</g>
<defs>
<clipPath id="clip0_1_9544">
<rect width="18" height="18" fill="white" transform="translate(3 3)"/>
</clipPath>
</defs>
</svg>
