<svg width="24" height="24" viewBox="0 0 24 24" fill="none" xmlns="http://www.w3.org/2000/svg">
<circle cx="12" cy="12" r="12" fill="#FF5200"/>
<path d="M17 15.165C17 15.345 16.9599 15.53 16.8748 15.71C16.7897 15.89 16.6795 16.06 16.5343 16.22C16.2889 16.49 16.0185 16.685 15.7131 16.81C15.4126 16.935 15.0871 17 14.7366 17C14.2258 17 13.68 16.88 13.1042 16.635C12.5283 16.39 11.9524 16.06 11.3816 15.645C10.8057 15.225 10.2599 14.76 9.73911 14.245C9.22334 13.725 8.75764 13.18 8.34201 12.61C7.9314 12.04 7.6009 11.47 7.36054 10.905C7.12018 10.335 7 9.79 7 9.27C7 8.93 7.06009 8.605 7.18027 8.305C7.30045 8 7.49074 7.72 7.75613 7.47C8.07661 7.155 8.42714 7 8.7977 7C8.93791 7 9.07812 7.03 9.20331 7.09C9.3335 7.15 9.44867 7.24 9.53881 7.37L10.7006 9.005C10.7907 9.13 10.8558 9.245 10.9009 9.355C10.9459 9.46 10.971 9.565 10.971 9.66C10.971 9.78 10.9359 9.9 10.8658 10.015C10.8007 10.13 10.7056 10.25 10.5854 10.37L10.2048 10.765C10.1497 10.82 10.1247 10.885 10.1247 10.965C10.1247 11.005 10.1297 11.04 10.1397 11.08C10.1547 11.12 10.1698 11.15 10.1798 11.18C10.2699 11.345 10.4251 11.56 10.6455 11.82C10.8708 12.08 11.1112 12.345 11.3716 12.61C11.642 12.875 11.9024 13.12 12.1678 13.345C12.4281 13.565 12.6435 13.715 12.8137 13.805C12.8388 13.815 12.8688 13.83 12.9039 13.845C12.9439 13.86 12.984 13.865 13.029 13.865C13.1142 13.865 13.1793 13.835 13.2344 13.78L13.6149 13.405C13.7401 13.28 13.8603 13.185 13.9755 13.125C14.0906 13.055 14.2058 13.02 14.331 13.02C14.4261 13.02 14.5263 13.04 14.6365 13.085C14.7466 13.13 14.8618 13.195 14.987 13.28L16.6445 14.455C16.7747 14.545 16.8648 14.65 16.9199 14.775C16.97 14.9 17 15.025 17 15.165Z" fill="white"/>
</svg>
