<svg width="18" height="18" viewBox="0 0 18 18" fill="none" xmlns="http://www.w3.org/2000/svg">
<g clip-path="url(#clip0_1_9414)">
<circle cx="9" cy="9" r="9" fill="#FF7A00"/>
<path fill-rule="evenodd" clip-rule="evenodd" d="M13.1239 13.3817C15.5837 11.0436 15.6257 7.14877 13.2439 4.76259C10.9041 2.41247 7.10041 2.41247 4.7606 4.76259C2.37281 7.14877 2.41481 11.0436 4.8806 13.3817C7.16041 15.5394 10.8501 15.5394 13.1239 13.3817ZM11.7527 7.80241C11.7527 8.28566 11.361 8.67741 10.8777 8.67741C10.3945 8.67741 10.0027 8.28566 10.0027 7.80241C10.0027 7.31916 10.3945 6.92741 10.8777 6.92741C11.361 6.92741 11.7527 7.31916 11.7527 7.80241ZM6.79437 8.67725C7.27762 8.67725 7.66937 8.2855 7.66937 7.80225C7.66937 7.319 7.27762 6.92725 6.79437 6.92725C6.31112 6.92725 5.91937 7.319 5.91937 7.80225C5.91937 8.2855 6.31112 8.67725 6.79437 8.67725ZM11.4191 11.5615C11.62 11.372 11.6292 11.0555 11.4397 10.8546C11.2502 10.6538 10.9338 10.6446 10.7329 10.8341C9.68843 11.8194 7.98334 11.8183 6.94584 10.8349C6.74542 10.6449 6.42895 10.6534 6.23898 10.8538C6.04901 11.0542 6.05748 11.3707 6.2579 11.5606C7.68206 12.9106 9.99028 12.9094 11.4191 11.5615Z" fill="white"/>
</g>
<defs>
<clipPath id="clip0_1_9414">
<rect width="18" height="18" fill="white"/>
</clipPath>
</defs>
</svg>
