<svg width="24" height="32" viewBox="0 0 24 32" fill="none" xmlns="http://www.w3.org/2000/svg">
<path d="M12 31.9999C11.6938 32.0022 11.3946 31.9087 11.144 31.7325C10.8933 31.5562 10.7038 31.3059 10.6017 31.0165C9.03652 26.6907 3.19827 20.2149 3.13566 20.1469L3.09913 20.0998C1.54178 18.3731 0.517571 16.2304 0.150716 13.9316C-0.216138 11.6328 0.0901156 9.27674 1.03234 7.14901C1.97457 5.02128 3.5123 3.21332 5.45906 1.94437C7.40581 0.675425 9.67797 0 12 0C14.322 0 16.5942 0.675425 18.5409 1.94437C20.4877 3.21332 22.0254 5.02128 22.9677 7.14901C23.9099 9.27674 24.2161 11.6328 23.8493 13.9316C23.4824 16.2304 22.4582 18.3731 20.9009 20.0998L20.8643 20.1469C20.8017 20.2149 14.9635 26.6907 13.3983 31.0165C13.2969 31.3064 13.1075 31.5571 12.8567 31.7335C12.6059 31.9098 12.3063 32.003 12 31.9999Z" fill="white"/>
<path d="M23 12.0239C23 9.10015 21.8411 6.29619 19.7782 4.22881C17.7153 2.16144 14.9174 1 12 1C9.08262 1 6.28472 2.16144 4.22182 4.22881C2.15892 6.29619 1 9.10015 1 12.0239C1.00008 14.7731 2.03011 17.4221 3.88619 19.4466C3.88619 19.4466 9.92571 26.1082 11.5914 30.7014C11.6211 30.7885 11.6772 30.8641 11.7518 30.9177C11.8265 30.9712 11.916 31 12.0079 31C12.0997 31 12.1892 30.9712 12.2639 30.9177C12.3385 30.8641 12.3946 30.7885 12.4243 30.7014C14.09 26.1082 20.1243 19.4466 20.1243 19.4466C21.977 17.4208 23.0033 14.7718 23 12.0239Z" fill="#FF7A00"/>
<g clip-path="url(#clip0_1_9532)">
<circle cx="12" cy="12" r="9" fill="#FF7A00"/>
<path fill-rule="evenodd" clip-rule="evenodd" d="M16.1239 16.3817C18.5837 14.0436 18.6257 10.1488 16.2439 7.76259C13.9041 5.41247 10.1004 5.41247 7.7606 7.76259C5.37281 10.1488 5.41481 14.0436 7.8806 16.3817C10.1604 18.5394 13.8501 18.5394 16.1239 16.3817ZM14.7527 10.8024C14.7527 11.2857 14.361 11.6774 13.8777 11.6774C13.3945 11.6774 13.0027 11.2857 13.0027 10.8024C13.0027 10.3192 13.3945 9.92741 13.8777 9.92741C14.361 9.92741 14.7527 10.3192 14.7527 10.8024ZM9.79437 11.6772C10.2776 11.6772 10.6694 11.2855 10.6694 10.8022C10.6694 10.319 10.2776 9.92725 9.79437 9.92725C9.31112 9.92725 8.91937 10.319 8.91937 10.8022C8.91937 11.2855 9.31112 11.6772 9.79437 11.6772ZM14.4191 14.5615C14.62 14.372 14.6292 14.0555 14.4397 13.8546C14.2502 13.6538 13.9338 13.6446 13.7329 13.8341C12.6884 14.8194 10.9833 14.8183 9.94584 13.8349C9.74542 13.6449 9.42895 13.6534 9.23898 13.8538C9.04901 14.0542 9.05748 14.3707 9.2579 14.5606C10.6821 15.9106 12.9903 15.9094 14.4191 14.5615Z" fill="white"/>
</g>
<defs>
<clipPath id="clip0_1_9532">
<rect width="18" height="18" fill="white" transform="translate(3 3)"/>
</clipPath>
</defs>
</svg>
