<svg width="18" height="18" viewBox="0 0 18 18" fill="none" xmlns="http://www.w3.org/2000/svg">
<g clip-path="url(#clip0_1_9402)">
<circle cx="9" cy="9" r="9" fill="#00A47C"/>
<path d="M13.3444 5.14967H13.1043L11.0762 3.12151C10.9142 2.9595 10.6501 2.9595 10.4821 3.12151C10.3201 3.28352 10.3201 3.54754 10.4821 3.71556L11.9162 5.14967H6.08376L7.51788 3.71556C7.67989 3.55354 7.67989 3.28952 7.51788 3.12151C7.35587 2.9595 7.09184 2.9595 6.92383 3.12151L4.90167 5.14967H4.66165C4.1216 5.14967 2.99951 5.14968 2.99951 6.6858C2.99951 7.26785 3.11952 7.65188 3.37154 7.9039C3.51555 8.05391 3.68957 8.13192 3.87558 8.17392C4.0496 8.21592 4.23561 8.22192 4.41563 8.22192H13.5844C13.7704 8.22192 13.9444 8.20992 14.1124 8.17392C14.6165 8.05391 15.0005 7.69388 15.0005 6.6858C15.0005 5.14968 13.8784 5.14967 13.3444 5.14967Z" fill="white"/>
<path d="M13.23 9.00195H4.72126C4.34923 9.00195 4.06721 9.33198 4.12721 9.69801L4.63126 12.7823C4.79927 13.8143 5.24931 15.0024 7.24747 15.0024H10.6137C12.6359 15.0024 12.9959 13.9884 13.212 12.8543L13.818 9.71601C13.89 9.34398 13.608 9.00195 13.23 9.00195ZM8.16554 12.8723C8.16554 13.1063 7.97953 13.2923 7.75151 13.2923C7.51749 13.2923 7.33148 13.1063 7.33148 12.8723V10.8921C7.33148 10.6641 7.51749 10.4721 7.75151 10.4721C7.97953 10.4721 8.16554 10.6641 8.16554 10.8921V12.8723ZM10.7338 12.8723C10.7338 13.1063 10.5477 13.2923 10.3137 13.2923C10.0857 13.2923 9.89368 13.1063 9.89368 12.8723V10.8921C9.89368 10.6641 10.0857 10.4721 10.3137 10.4721C10.5477 10.4721 10.7338 10.6641 10.7338 10.8921V12.8723Z" fill="white"/>
</g>
<defs>
<clipPath id="clip0_1_9402">
<rect width="18" height="18" fill="white"/>
</clipPath>
</defs>
</svg>
