<svg width="24" height="32" viewBox="0 0 24 32" fill="none" xmlns="http://www.w3.org/2000/svg">
<path d="M12 31.9999C11.6938 32.0022 11.3946 31.9087 11.144 31.7325C10.8933 31.5562 10.7038 31.3059 10.6017 31.0165C9.03652 26.6907 3.19827 20.2149 3.13566 20.1469L3.09913 20.0998C1.54178 18.3731 0.517571 16.2304 0.150716 13.9316C-0.216138 11.6328 0.0901156 9.27674 1.03234 7.14901C1.97457 5.02128 3.5123 3.21332 5.45906 1.94437C7.40581 0.675425 9.67797 0 12 0C14.322 0 16.5942 0.675425 18.5409 1.94437C20.4877 3.21332 22.0254 5.02128 22.9677 7.14901C23.9099 9.27674 24.2161 11.6328 23.8493 13.9316C23.4824 16.2304 22.4582 18.3731 20.9009 20.0998L20.8643 20.1469C20.8017 20.2149 14.9635 26.6907 13.3983 31.0165C13.2969 31.3064 13.1075 31.5571 12.8567 31.7335C12.6059 31.9098 12.3063 32.003 12 31.9999Z" fill="white"/>
<path d="M23 12.0239C23 9.10015 21.8411 6.29619 19.7782 4.22881C17.7153 2.16144 14.9174 1 12 1C9.08262 1 6.28472 2.16144 4.22182 4.22881C2.15892 6.29619 1 9.10015 1 12.0239C1.00008 14.7731 2.03011 17.4221 3.88619 19.4466C3.88619 19.4466 9.92571 26.1082 11.5914 30.7014C11.6211 30.7885 11.6772 30.8641 11.7518 30.9177C11.8265 30.9712 11.916 31 12.0079 31C12.0997 31 12.1892 30.9712 12.2639 30.9177C12.3385 30.8641 12.3946 30.7885 12.4243 30.7014C14.09 26.1082 20.1243 19.4466 20.1243 19.4466C21.977 17.4208 23.0033 14.7718 23 12.0239Z" fill="#136A55"/>
<g clip-path="url(#clip0_1_9524)">
<circle cx="12" cy="12" r="9" fill="#136A55"/>
<path d="M16.3444 8.14967H16.1043L14.0762 6.12151C13.9142 5.9595 13.6501 5.9595 13.4821 6.12151C13.3201 6.28352 13.3201 6.54754 13.4821 6.71556L14.9162 8.14967H9.08376L10.5179 6.71556C10.6799 6.55354 10.6799 6.28952 10.5179 6.12151C10.3559 5.9595 10.0918 5.9595 9.92383 6.12151L7.90167 8.14967H7.66165C7.1216 8.14967 5.99951 8.14968 5.99951 9.6858C5.99951 10.2678 6.11952 10.6519 6.37154 10.9039C6.51555 11.0539 6.68957 11.1319 6.87558 11.1739C7.0496 11.2159 7.23561 11.2219 7.41563 11.2219H16.5844C16.7704 11.2219 16.9444 11.2099 17.1124 11.1739C17.6165 11.0539 18.0005 10.6939 18.0005 9.6858C18.0005 8.14968 16.8784 8.14967 16.3444 8.14967Z" fill="white"/>
<path d="M16.23 12.002H7.72126C7.34923 12.002 7.06721 12.332 7.12721 12.698L7.63126 15.7823C7.79927 16.8143 8.24931 18.0024 10.2475 18.0024H13.6137C15.6359 18.0024 15.9959 16.9884 16.212 15.8543L16.818 12.716C16.89 12.344 16.608 12.002 16.23 12.002ZM11.1655 15.8723C11.1655 16.1063 10.9795 16.2923 10.7515 16.2923C10.5175 16.2923 10.3315 16.1063 10.3315 15.8723V13.8921C10.3315 13.6641 10.5175 13.4721 10.7515 13.4721C10.9795 13.4721 11.1655 13.6641 11.1655 13.8921V15.8723ZM13.7338 15.8723C13.7338 16.1063 13.5477 16.2923 13.3137 16.2923C13.0857 16.2923 12.8937 16.1063 12.8937 15.8723V13.8921C12.8937 13.6641 13.0857 13.4721 13.3137 13.4721C13.5477 13.4721 13.7338 13.6641 13.7338 13.8921V15.8723Z" fill="white"/>
</g>
<defs>
<clipPath id="clip0_1_9524">
<rect width="18" height="18" fill="white" transform="translate(3 3)"/>
</clipPath>
</defs>
</svg>
