<svg width="18" height="18" viewBox="0 0 18 18" fill="none" xmlns="http://www.w3.org/2000/svg">
<g clip-path="url(#clip0_1_9226)">
<path d="M15.4001 4.9601V13.0401C15.2721 13.0161 15.1361 13.0001 15.0001 13.0001C13.8961 13.0001 13.0001 13.8961 13.0001 15.0001C13.0001 15.1361 13.0161 15.2721 13.0401 15.4001H4.9601C4.9841 15.2721 5.0001 15.1361 5.0001 15.0001C5.0001 13.8961 4.1041 13.0001 3.0001 13.0001C2.8641 13.0001 2.7281 13.0161 2.6001 13.0401V4.9601C2.7281 4.9841 2.8641 5.0001 3.0001 5.0001C4.1041 5.0001 5.0001 4.1041 5.0001 3.0001C5.0001 2.8641 4.9841 2.7281 4.9601 2.6001H13.0401C13.0161 2.7281 13.0001 2.8641 13.0001 3.0001C13.0001 4.1041 13.8961 5.0001 15.0001 5.0001C15.1361 5.0001 15.2721 4.9841 15.4001 4.9601Z" stroke="#FF5200" stroke-width="1.2" stroke-linecap="round" stroke-linejoin="round"/>
<path d="M5 3C5 4.104 4.104 5 3 5C2.864 5 2.728 4.984 2.6 4.96C1.688 4.776 1 3.968 1 3C1 1.896 1.896 1 3 1C3.968 1 4.776 1.688 4.96 2.6C4.984 2.728 5 2.864 5 3Z" fill="#FF5200" stroke="#FF5200" stroke-width="1.2" stroke-linecap="round" stroke-linejoin="round"/>
<path d="M17 3C17 3.968 16.312 4.776 15.4 4.96C15.272 4.984 15.136 5 15 5C13.896 5 13 4.104 13 3C13 2.864 13.016 2.728 13.04 2.6C13.224 1.688 14.032 1 15 1C16.104 1 17 1.896 17 3Z" fill="#FF5200" stroke="#FF5200" stroke-width="1.2" stroke-linecap="round" stroke-linejoin="round"/>
<path d="M5 15C5 15.136 4.984 15.272 4.96 15.4C4.776 16.312 3.968 17 3 17C1.896 17 1 16.104 1 15C1 14.032 1.688 13.224 2.6 13.04C2.728 13.016 2.864 13 3 13C4.104 13 5 13.896 5 15Z" fill="#FF5200" stroke="#FF5200" stroke-width="1.2" stroke-linecap="round" stroke-linejoin="round"/>
<path d="M17 15C17 16.104 16.104 17 15 17C14.032 17 13.224 16.312 13.04 15.4C13.016 15.272 13 15.136 13 15C13 13.896 13.896 13 15 13C15.136 13 15.272 13.016 15.4 13.04C16.312 13.224 17 14.032 17 15Z" fill="#FF5200" stroke="#FF5200" stroke-width="1.2" stroke-linecap="round" stroke-linejoin="round"/>
</g>
<defs>
<clipPath id="clip0_1_9226">
<rect width="18" height="18" fill="white"/>
</clipPath>
</defs>
</svg>
