<svg width="18" height="18" viewBox="0 0 18 18" fill="none" xmlns="http://www.w3.org/2000/svg">
<g clip-path="url(#clip0_1_9352)">
<circle cx="9" cy="9" r="9" fill="#34A853"/>
<path fill-rule="evenodd" clip-rule="evenodd" d="M3.29702 6.71051L8.13548 3.99867C8.47985 3.81002 8.8931 3.81002 9.23747 3.99867L14.7015 7.05834C14.8852 7.16445 15 7.359 15 7.57713V11.356C15 11.6803 14.7417 11.9456 14.426 11.9456C14.1104 11.9456 13.8521 11.6803 13.8521 11.356V7.87189L9.23747 10.4599C8.8931 10.6545 8.47985 10.6545 8.13548 10.4599L3.29702 7.74809C2.90099 7.52407 2.90099 6.93454 3.29702 6.71051ZM4.66872 11.3501V9.69353L8.13542 11.639C8.47979 11.8335 8.89304 11.8335 9.23741 11.639L12.7041 9.69353V11.3501C12.7041 11.7805 12.4745 12.1814 12.1072 12.3877L9.23741 13.9971C8.89304 14.1917 8.47979 14.1917 8.13542 13.9971L5.26563 12.3877C4.8983 12.1814 4.66872 11.7805 4.66872 11.3501Z" fill="white"/>
</g>
<defs>
<clipPath id="clip0_1_9352">
<rect width="18" height="18" fill="white"/>
</clipPath>
</defs>
</svg>
