<svg width="24" height="32" viewBox="0 0 24 32" fill="none" xmlns="http://www.w3.org/2000/svg">
<path d="M12 31.9999C11.6938 32.0022 11.3946 31.9087 11.144 31.7325C10.8933 31.5562 10.7038 31.3059 10.6017 31.0165C9.03652 26.6907 3.19827 20.2149 3.13566 20.1469L3.09913 20.0998C1.54178 18.3731 0.517571 16.2304 0.150716 13.9316C-0.216138 11.6328 0.0901156 9.27674 1.03234 7.14901C1.97457 5.02128 3.5123 3.21332 5.45906 1.94437C7.40581 0.675425 9.67797 0 12 0C14.322 0 16.5942 0.675425 18.5409 1.94437C20.4877 3.21332 22.0254 5.02128 22.9677 7.14901C23.9099 9.27674 24.2161 11.6328 23.8493 13.9316C23.4824 16.2304 22.4582 18.3731 20.9009 20.0998L20.8643 20.1469C20.8017 20.2149 14.9635 26.6907 13.3983 31.0165C13.2969 31.3064 13.1075 31.5571 12.8567 31.7335C12.6059 31.9098 12.3063 32.003 12 31.9999Z" fill="white"/>
<path d="M23 12.0239C23 9.10015 21.8411 6.29619 19.7782 4.22881C17.7153 2.16144 14.9174 1 12 1C9.08262 1 6.28472 2.16144 4.22182 4.22881C2.15892 6.29619 1 9.10015 1 12.0239C1.00008 14.7731 2.03011 17.4221 3.88619 19.4466C3.88619 19.4466 9.92571 26.1082 11.5914 30.7014C11.6211 30.7885 11.6772 30.8641 11.7518 30.9177C11.8265 30.9712 11.916 31 12.0079 31C12.0997 31 12.1892 30.9712 12.2639 30.9177C12.3385 30.8641 12.3946 30.7885 12.4243 30.7014C14.09 26.1082 20.1243 19.4466 20.1243 19.4466C21.977 17.4208 23.0033 14.7718 23 12.0239Z" fill="#34A853"/>
<g clip-path="url(#clip0_1_9495)">
<circle cx="12" cy="12" r="9" fill="#34A853"/>
<path fill-rule="evenodd" clip-rule="evenodd" d="M6.29702 9.71051L11.1355 6.99867C11.4799 6.81002 11.8931 6.81002 12.2375 6.99867L17.7015 10.0583C17.8852 10.1645 18 10.359 18 10.5771V14.356C18 14.6803 17.7417 14.9456 17.426 14.9456C17.1104 14.9456 16.8521 14.6803 16.8521 14.356V10.8719L12.2375 13.4599C11.8931 13.6545 11.4799 13.6545 11.1355 13.4599L6.29702 10.7481C5.90099 10.5241 5.90099 9.93454 6.29702 9.71051ZM7.66872 14.3501V12.6935L11.1354 14.639C11.4798 14.8335 11.893 14.8335 12.2374 14.639L15.7041 12.6935V14.3501C15.7041 14.7805 15.4745 15.1814 15.1072 15.3877L12.2374 16.9971C11.893 17.1917 11.4798 17.1917 11.1354 16.9971L8.26563 15.3877C7.8983 15.1814 7.66872 14.7805 7.66872 14.3501Z" fill="white"/>
</g>
<defs>
<clipPath id="clip0_1_9495">
<rect width="18" height="18" fill="white" transform="translate(3 3)"/>
</clipPath>
</defs>
</svg>
