<svg width="24" height="24" viewBox="0 0 24 24" fill="none" xmlns="http://www.w3.org/2000/svg">
<path d="M8.66667 10L2 12.4375V23L8.66667 20.5625M8.66667 10L15.3333 12.4375M8.66667 10V20.5625M15.3333 12.4375L22 10V20.5625L15.3333 23M15.3333 12.4375V23M15.3333 23L8.66667 20.5625" stroke="#FF5200" stroke-width="2" stroke-linecap="round" stroke-linejoin="round"/>
<path d="M12 6L12 11" stroke="#FF5200" stroke-width="2" stroke-linecap="round" stroke-linejoin="round"/>
<path d="M12.0231 6.40976C9.97201 6.80933 5.54586 6.41739 4.25 1.65308C6.83845 1.11166 12.0169 1.30501 12.0231 6.40976Z" stroke="#FF5200" stroke-width="2" stroke-linejoin="round"/>
<path d="M11.9769 6.40951C14.028 6.80908 18.4541 6.41715 19.75 1.65283C17.1616 1.11142 11.9831 1.30477 11.9769 6.40951Z" stroke="#FF5200" stroke-width="2" stroke-linejoin="round"/>
</svg>
