<svg width="24" height="24" viewBox="0 0 24 24" fill="none" xmlns="http://www.w3.org/2000/svg">
<path d="M3.73162 14.168L11.3388 21.3737C11.6387 21.6578 11.7886 21.7998 11.9708 21.8104C11.9902 21.8116 12.0098 21.8116 12.0292 21.8104C12.2114 21.7998 12.3613 21.6578 12.6612 21.3737L20.2684 14.168C22.3883 12.16 22.6462 8.87395 20.8656 6.55973L20.5037 6.08949C18.3616 3.30551 14.0338 3.76981 12.531 6.94483C12.3189 7.39302 11.6811 7.39302 11.469 6.94483C9.96618 3.76981 5.63839 3.30551 3.49626 6.08949L3.13443 6.55973C1.35376 8.87395 1.61168 12.16 3.73162 14.168Z" fill="#DDDDDD" stroke="#DDDDDD" stroke-width="2"/>
</svg>
