<svg width="18" height="18" viewBox="0 0 18 18" fill="none" xmlns="http://www.w3.org/2000/svg">
<g clip-path="url(#clip0_1_9357)">
<circle cx="9" cy="9" r="9" fill="#FFA421"/>
<path d="M14.8332 12.5833V13.8333C14.8332 14.1095 14.6093 14.3333 14.3332 14.3333H3.6665C3.39036 14.3333 3.1665 14.1095 3.1665 13.8333V12.5833C3.1665 12.2625 3.429 12 3.74984 12H14.2498C14.5707 12 14.8332 12.2625 14.8332 12.5833Z" fill="white"/>
<path d="M6.08317 7.9165H4.9165V11.9998H6.08317V7.9165Z" fill="white"/>
<path d="M8.41667 7.9165H7.25V11.9998H8.41667V7.9165Z" fill="white"/>
<path d="M10.7497 7.9165H9.58301V11.9998H10.7497V7.9165Z" fill="white"/>
<path d="M13.0832 7.9165H11.9165V11.9998H13.0832V7.9165Z" fill="white"/>
<path d="M14.4657 4.85399L9.21567 2.75399C9.099 2.70733 8.90067 2.70733 8.784 2.75399L3.534 4.85399C3.32984 4.93566 3.1665 5.17483 3.1665 5.39649V7.33316C3.1665 7.65399 3.429 7.91649 3.74984 7.91649H14.2498C14.5707 7.91649 14.8332 7.65399 14.8332 7.33316V5.39649C14.8332 5.17483 14.6698 4.93566 14.4657 4.85399ZM8.99984 6.45816C8.51567 6.45816 8.12484 6.06733 8.12484 5.58316C8.12484 5.09899 8.51567 4.70816 8.99984 4.70816C9.484 4.70816 9.87484 5.09899 9.87484 5.58316C9.87484 6.06733 9.484 6.45816 8.99984 6.45816Z" fill="white"/>
</g>
<defs>
<clipPath id="clip0_1_9357">
<rect width="18" height="18" fill="white"/>
</clipPath>
</defs>
</svg>
