<svg width="24" height="24" viewBox="0 0 24 24" fill="none" xmlns="http://www.w3.org/2000/svg">
<path d="M4.94136 9.4043C4.51007 9.4043 4.12737 9.68081 3.99194 10.0903L0.434589 20.8462C0.22057 21.4933 0.702436 22.1602 1.38401 22.1602H6.84318C7.37685 22.1602 7.81647 21.7411 7.84204 21.2081L8.35785 10.4522C8.38521 9.88176 7.93009 9.4043 7.359 9.4043H4.94136Z" fill="#BBBBBB"/>
<path d="M14.7986 10.3564C14.773 9.82335 14.3334 9.4043 13.7997 9.4043H9.90525C9.37159 9.4043 8.93196 9.82335 8.9064 10.3564L8.39059 21.1123C8.36323 21.6827 8.81835 22.1602 9.38944 22.1602H14.3156C14.8867 22.1602 15.3418 21.6827 15.3144 21.1123L14.7986 10.3564Z" fill="#BBBBBB"/>
<path d="M22.6159 22.1602C23.2974 22.1602 23.7793 21.4933 23.5653 20.8462L20.0079 10.0903C19.8725 9.68081 19.4898 9.4043 19.0585 9.4043H16.5523C15.9812 9.4043 15.5261 9.88176 15.5534 10.4522L16.0692 21.2081C16.0948 21.7411 16.5344 22.1602 17.0681 22.1602H22.6159Z" fill="#BBBBBB"/>
<path d="M11.3816 8.5635C9.32341 8.64206 5.07807 7.57284 4.5625 2.66748C7.16576 2.53163 12.1742 3.52065 11.3816 8.5635Z" fill="#BBBBBB"/>
<path d="M12.1809 8.5635C14.2391 8.64206 18.4844 7.57284 19 2.66748C16.3967 2.53163 11.3883 3.52065 12.1809 8.5635Z" fill="#BBBBBB"/>
</svg>
