<svg width="24" height="25" viewBox="0 0 24 25" fill="none" xmlns="http://www.w3.org/2000/svg">
<path d="M7.75 3.5V2C7.75 1.59 7.41 1.25 7 1.25C6.59 1.25 6.25 1.59 6.25 2V3.56C6.5 3.53 6.73 3.5 7 3.5H7.75Z" fill="#FF5200"/>
<path d="M15.75 3.56V2C15.75 1.59 15.41 1.25 15 1.25C14.59 1.25 14.25 1.59 14.25 2V3.5H15C15.27 3.5 15.5 3.53 15.75 3.56Z" fill="#FF5200"/>
<path d="M15.75 3.56V5C15.75 5.41 15.41 5.75 15 5.75C14.59 5.75 14.25 5.41 14.25 5V3.5H7.75V5C7.75 5.41 7.41 5.75 7 5.75C6.59 5.75 6.25 5.41 6.25 5V3.56C3.3 3.83 2 5.73 2 8.5V17C2 20 3.5 22 7 22H11.13C11.89 22 12.4 21.15 12.21 20.41C12.07 19.87 12 19.31 12 18.75C12 16.67 12.93 14.75 14.54 13.48C15.71 12.53 17.21 12 18.75 12H18.79C19.42 12 20 11.54 20 10.91V8.5C20 5.73 18.7 3.83 15.75 3.56ZM9 16.75H7C6.59 16.75 6.25 16.41 6.25 16C6.25 15.59 6.59 15.25 7 15.25H9C9.41 15.25 9.75 15.59 9.75 16C9.75 16.41 9.41 16.75 9 16.75ZM12 11.75H7C6.59 11.75 6.25 11.41 6.25 11C6.25 10.59 6.59 10.25 7 10.25H12C12.41 10.25 12.75 10.59 12.75 11C12.75 11.41 12.41 11.75 12 11.75Z" fill="#FF5200"/>
<path d="M13.4002 22.0906C13.2106 20.8971 11.7837 16.0834 16.3178 14.0522C20.8542 12.0351 21.5 12.0001 22.1633 11.0114C22.1633 11.0114 25.6282 23.0035 14.233 22.7012L13.4024 22.1048L13.4002 22.0906Z" fill="#FF5200"/>
<path d="M17.9134 17.5982C16.8534 19.5739 14.042 23.5586 11.2767 23.6914" stroke="white" stroke-width="1.2" stroke-linecap="round"/>
</svg>
