<svg width="18" height="18" viewBox="0 0 18 18" fill="none" xmlns="http://www.w3.org/2000/svg">
<g clip-path="url(#clip0_1_9383)">
<circle cx="9" cy="9" r="9" fill="#F50F0F"/>
<path fill-rule="evenodd" clip-rule="evenodd" d="M13.8192 5.39097L10.3666 2.9727C9.42557 2.31262 7.98102 2.34863 7.07592 3.05071L4.07293 5.39697C3.47353 5.86502 3 6.82513 3 7.58122V11.7217C3 13.2519 4.24076 14.5 5.76923 14.5H12.2308C13.7592 14.5 15 13.2579 15 11.7277V7.65923C15 6.84914 14.4785 5.85302 13.8192 5.39097ZM8 5.5H10V8H12.5V10H10V12.5H8V10H5.5V8H8V5.5Z" fill="white"/>
</g>
<defs>
<clipPath id="clip0_1_9383">
<rect width="18" height="18" fill="white"/>
</clipPath>
</defs>
</svg>
