<svg width="18" height="18" viewBox="0 0 18 18" fill="none" xmlns="http://www.w3.org/2000/svg">
<g clip-path="url(#clip0_1_9149)">
<path d="M5.2589 16.6625C5.2331 16.6625 5.1987 16.6797 5.1729 16.6797C3.50451 15.8542 2.14572 14.4868 1.31152 12.8184C1.31152 12.7926 1.32872 12.7582 1.32872 12.7324C2.37792 13.042 3.46151 13.2742 4.5365 13.4548C4.7257 14.5384 4.9493 15.6134 5.2589 16.6625Z" fill="#FF5200"/>
<path d="M16.6884 12.827C15.837 14.5384 14.418 15.923 12.6895 16.7571C13.0163 15.665 13.2914 14.5642 13.472 13.4548C14.5556 13.2742 15.622 13.042 16.6712 12.7324C16.6626 12.7668 16.6884 12.8012 16.6884 12.827Z" fill="#FF5200"/>
<path d="M16.7572 5.31039C15.6736 4.9836 14.5814 4.71701 13.472 4.52781C13.2914 3.41843 13.0249 2.31765 12.6895 1.24268C14.4696 2.09406 15.9058 3.53023 16.7572 5.31039Z" fill="#FF5200"/>
<path d="M5.25885 1.33781C4.94925 2.38699 4.72565 3.45337 4.54505 4.53695C3.43566 4.70894 2.33487 4.98414 1.24268 5.31093C2.07687 3.58237 3.46146 2.16339 5.17285 1.31201C5.19865 1.31201 5.23305 1.33781 5.25885 1.33781Z" fill="#FF5200"/>
<path d="M12.0013 4.34722C10.0061 4.12363 7.99372 4.12363 5.99854 4.34722C6.21353 3.16905 6.48873 1.99087 6.87573 0.855693C6.89293 0.786895 6.88433 0.735296 6.89293 0.666497C7.57232 0.5031 8.26892 0.399902 8.99991 0.399902C9.72231 0.399902 10.4275 0.5031 11.0983 0.666497C11.1069 0.735296 11.1069 0.786895 11.1241 0.855693C11.5111 1.99947 11.7863 3.16905 12.0013 4.34722Z" fill="#FF5200"/>
<path d="M4.34728 12.0012C3.16048 11.7862 1.99089 11.511 0.855699 11.124C0.7869 11.1068 0.7353 11.1154 0.6665 11.1068C0.503102 10.4274 0.399902 9.73086 0.399902 8.99987C0.399902 8.27749 0.503102 7.5723 0.6665 6.90152C0.7353 6.89292 0.7869 6.89292 0.855699 6.87572C1.99949 6.49732 3.16048 6.21353 4.34728 5.99854C4.13228 7.9937 4.13228 10.0061 4.34728 12.0012Z" fill="#FF5200"/>
<path d="M17.5997 8.99987C17.5997 9.73086 17.4965 10.4274 17.3331 11.1068C17.2643 11.1154 17.2127 11.1068 17.1439 11.124C16.0001 11.5024 14.8305 11.7862 13.6523 12.0012C13.8759 10.0061 13.8759 7.9937 13.6523 5.99854C14.8305 6.21353 16.0087 6.48872 17.1439 6.87572C17.2127 6.89292 17.2643 6.90152 17.3331 6.90152C17.4965 7.5809 17.5997 8.27749 17.5997 8.99987Z" fill="#FF5200"/>
<path d="M12.0008 13.6528C11.7858 14.8396 11.5106 16.0092 11.1236 17.1444C11.1064 17.2132 11.1064 17.2648 11.0978 17.3336C10.427 17.497 9.72182 17.6002 8.99943 17.6002C8.26843 17.6002 7.57184 17.497 6.89244 17.3336C6.88384 17.2648 6.89244 17.2132 6.87524 17.1444C6.49684 16.0006 6.21305 14.8396 5.99805 13.6528C6.99564 13.7646 7.99323 13.842 8.99943 13.842C10.0056 13.842 11.0118 13.7646 12.0008 13.6528Z" fill="#FF5200"/>
<path d="M12.2365 12.2357C10.0855 12.507 7.91452 12.507 5.76359 12.2357C5.49221 10.0848 5.49221 7.91376 5.76359 5.76286C7.91452 5.49148 10.0855 5.49148 12.2365 5.76286C12.5079 7.91376 12.5079 10.0848 12.2365 12.2357Z" fill="#FF5200"/>
</g>
<defs>
<clipPath id="clip0_1_9149">
<rect width="18" height="18" fill="white"/>
</clipPath>
</defs>
</svg>
