<svg width="18" height="18" viewBox="0 0 18 18" fill="none" xmlns="http://www.w3.org/2000/svg">
<path d="M9.92605 1.2068L15.3344 3.61481C16.8927 4.30413 16.8927 5.4438 15.3344 6.13312L9.92605 8.54113C9.31189 8.81686 8.30355 8.81686 7.68939 8.54113L2.28105 6.13312C0.722721 5.4438 0.722721 4.30413 2.28105 3.61481L7.68939 1.2068C8.30355 0.931068 9.31189 0.931068 9.92605 1.2068Z" fill="#FF5200" stroke="#FF5200" stroke-width="1.2" stroke-linecap="round" stroke-linejoin="round"/>
<path d="M0.75 8.05713C0.75 8.82916 1.3275 9.72068 2.03333 10.0332L8.2575 12.8088C8.73417 13.0202 9.275 13.0202 9.7425 12.8088L15.9667 10.0332C16.6725 9.72068 17.25 8.82916 17.25 8.05713" stroke="#FF5200" stroke-width="1.2" stroke-linecap="round" stroke-linejoin="round"/>
<path d="M0.75 12.0898C0.75 12.9446 1.25417 13.7166 2.03333 14.0659L8.2575 16.8415C8.73417 17.0529 9.275 17.0529 9.7425 16.8415L15.9667 14.0659C16.7458 13.7166 17.25 12.9446 17.25 12.0898" stroke="#FF5200" stroke-width="1.2" stroke-linecap="round" stroke-linejoin="round"/>
</svg>
