<svg width="24" height="24" viewBox="0 0 24 24" fill="none" xmlns="http://www.w3.org/2000/svg">
<path d="M13.1223 2.21411L19.6779 5.12522C21.5667 5.95856 21.5667 7.33633 19.6779 8.16967L13.1223 11.0808C12.3779 11.4141 11.1556 11.4141 10.4112 11.0808L3.85563 8.16967C1.96674 7.33633 1.96674 5.95856 3.85563 5.12522L10.4112 2.21411C11.1556 1.88078 12.3779 1.88078 13.1223 2.21411Z" stroke="#FF5200" stroke-width="2" stroke-linecap="round" stroke-linejoin="round"/>
<path d="M2 11.1919C2 12.1252 2.7 13.203 3.55556 13.5808L11.1 16.9363C11.6778 17.1919 12.3333 17.1919 12.9 16.9363L20.4444 13.5808C21.3 13.203 22 12.1252 22 11.1919" stroke="#FF5200" stroke-width="2" stroke-linecap="round" stroke-linejoin="round"/>
<path d="M2 16.7476C2 17.7809 2.61111 18.7142 3.55556 19.1364L11.1 22.492C11.6778 22.7476 12.3333 22.7476 12.9 22.492L20.4444 19.1364C21.3889 18.7142 22 17.7809 22 16.7476" stroke="#FF5200" stroke-width="2" stroke-linecap="round" stroke-linejoin="round"/>
</svg>
