<svg width="18" height="18" viewBox="0 0 18 18" fill="none" xmlns="http://www.w3.org/2000/svg">
<path d="M1.5 5.8314V13.1286C1.5 14.5535 2.5274 15.1385 3.77549 14.4335L5.56393 13.4285C5.95205 13.211 6.59894 13.1885 7.00228 13.391L10.9977 15.3634C11.4011 15.5584 12.0479 15.5434 12.4361 15.3259L15.7314 13.466C16.1499 13.226 16.5 12.6411 16.5 12.1611V4.86395C16.5 3.43902 15.4726 2.85405 14.2245 3.55901L12.4361 4.56396C12.0479 4.78145 11.4011 4.80395 10.9977 4.60146L7.00228 2.63656C6.59894 2.44157 5.95205 2.45657 5.56393 2.67406L2.26865 4.53397C1.84247 4.77395 1.5 5.35893 1.5 5.8314Z" fill="#FF5200" stroke="#FF5200" stroke-width="1.2" stroke-linecap="round" stroke-linejoin="round"/>
<path d="M6.27148 2.99658V12.7461" stroke="white" stroke-width="1.2" stroke-linecap="round" stroke-linejoin="round"/>
<path d="M11.7285 4.96167V14.9962" stroke="white" stroke-width="1.2" stroke-linecap="round" stroke-linejoin="round"/>
</svg>
