<svg width="18" height="18" viewBox="0 0 18 18" fill="none" xmlns="http://www.w3.org/2000/svg">
<g clip-path="url(#clip0_1_9367)">
<circle cx="9" cy="9" r="9" fill="#4FB5FF"/>
<path d="M11.5932 7.57188H6.40659C5.67275 7.57188 5.41778 7.07812 5.84689 6.47813L8.44019 2.82812C8.74492 2.39062 9.25488 2.39062 9.55961 2.82812L12.1529 6.47813C12.582 7.07812 12.327 7.57188 11.5932 7.57188Z" fill="white"/>
<path d="M12.4764 12.5343H5.5236C4.541 12.5343 4.20518 11.878 4.78354 11.078L7.26491 7.57178H10.7351L13.2165 11.078C13.7948 11.878 13.459 12.5343 12.4764 12.5343Z" fill="white"/>
<path d="M9.46654 12.5347V15.0347C9.46654 15.2909 9.25509 15.5034 9.00011 15.5034C8.74514 15.5034 8.53369 15.2909 8.53369 15.0347V12.5347H9.46654Z" fill="white"/>
</g>
<defs>
<clipPath id="clip0_1_9367">
<rect width="18" height="18" fill="white"/>
</clipPath>
</defs>
</svg>
