<svg width="18" height="18" viewBox="0 0 18 18" fill="none" xmlns="http://www.w3.org/2000/svg">
<path fill-rule="evenodd" clip-rule="evenodd" d="M9.80972 17.5381C11.5942 15.6706 16.25 10.4934 16.25 7.3125C16.25 3.37747 13.06 0.1875 9.125 0.1875C5.18997 0.1875 2 3.37747 2 7.3125C2 10.4934 6.6558 15.6706 8.44028 17.5381C8.81667 17.932 9.43333 17.932 9.80972 17.5381ZM9.125 9.6875C10.7646 9.6875 12.0938 8.35835 12.0938 6.71875C12.0938 5.07915 10.7646 3.75 9.125 3.75C7.4854 3.75 6.15625 5.07915 6.15625 6.71875C6.15625 8.35835 7.4854 9.6875 9.125 9.6875Z" fill="#FF5200"/>
</svg>
