<svg width="18" height="18" viewBox="0 0 18 18" fill="none" xmlns="http://www.w3.org/2000/svg">
<path d="M2 3L1 4.00001L2 5" stroke="#FF5200" stroke-width="1.2" stroke-linecap="round" stroke-linejoin="round"/>
<path d="M16 3L17 4.00001L16 5" stroke="#FF5200" stroke-width="1.2" stroke-linecap="round" stroke-linejoin="round"/>
<path d="M16 4H1" stroke="#FF5200" stroke-width="1.2" stroke-linecap="round" stroke-linejoin="round"/>
<path d="M3.4 16H14.6C16.2 16 17 15.2 17 13.6V10.4C17 8.8 16.2 8 14.6 8H3.4C1.8 8 1 8.8 1 10.4V13.6C1 15.2 1.8 16 3.4 16Z" fill="#FF5200" stroke="#FF5200" stroke-width="1.2" stroke-linecap="round"/>
<path d="M14.3998 8V7.4H13.1998V8H14.3998ZM13.1998 12C13.1998 12.3314 13.4684 12.6 13.7998 12.6C14.1312 12.6 14.3998 12.3314 14.3998 12H13.1998ZM13.1998 8V12H14.3998V8H13.1998Z" fill="white"/>
<path d="M4.8002 8V7.4H3.6002V8H4.8002ZM3.6002 11.2C3.6002 11.5314 3.86882 11.8 4.2002 11.8C4.53157 11.8 4.8002 11.5314 4.8002 11.2H3.6002ZM3.6002 8V11.2H4.8002V8H3.6002Z" fill="white"/>
<path d="M8.03987 8.006L8.04587 7.40603L6.84593 7.39403L6.83993 7.994L8.03987 8.006ZM6.79993 11.994C6.79662 12.3254 7.06255 12.5967 7.3939 12.6C7.72526 12.6033 7.99656 12.3374 7.99987 12.006L6.79993 11.994ZM6.83993 7.994L6.79993 11.994L7.99987 12.006L8.03987 8.006L6.83993 7.994Z" fill="white"/>
<path d="M11.2001 8V7.4H10.0001V8H11.2001ZM10.0001 10.4C10.0001 10.7314 10.2687 11 10.6001 11C10.9315 11 11.2001 10.7314 11.2001 10.4H10.0001ZM10.0001 8V10.4H11.2001V8H10.0001Z" fill="white"/>
</svg>
