<svg width="28" height="28" viewBox="0 0 28 28" fill="none" xmlns="http://www.w3.org/2000/svg">
<path d="M3.11122 4.66663L1.55566 6.22219L3.11122 7.77774" stroke="#FF5200" stroke-width="2" stroke-linecap="round" stroke-linejoin="round"/>
<path d="M24.8888 4.66663L26.4443 6.22219L24.8888 7.77774" stroke="#FF5200" stroke-width="2" stroke-linecap="round" stroke-linejoin="round"/>
<path d="M24.889 6.22217H1.55566" stroke="#FF5200" stroke-width="2" stroke-linecap="round" stroke-linejoin="round"/>
<path d="M5.289 24.8889H22.7112C25.2001 24.8889 26.4446 23.6445 26.4446 21.1556V16.1778C26.4446 13.6889 25.2001 12.4445 22.7112 12.4445H5.289C2.80011 12.4445 1.55566 13.6889 1.55566 16.1778V21.1556C1.55566 23.6445 2.80011 24.8889 5.289 24.8889Z" fill="#FF5200" stroke="#FF5200" stroke-width="2" stroke-linecap="round"/>
<path d="M22.4668 12.4445V11.4445H20.4668V12.4445H22.4668ZM20.4668 18.6667C20.4668 19.219 20.9145 19.6667 21.4668 19.6667C22.0191 19.6667 22.4668 19.219 22.4668 18.6667H20.4668ZM20.4668 12.4445V18.6667H22.4668V12.4445H20.4668Z" fill="white"/>
<path d="M7.53369 12.4445V11.4445H5.53369V12.4445H7.53369ZM5.53369 17.4222C5.53369 17.9745 5.98141 18.4222 6.53369 18.4222C7.08598 18.4222 7.53369 17.9745 7.53369 17.4222H5.53369ZM5.53369 12.4445V17.4222H7.53369V12.4445H5.53369Z" fill="white"/>
<path d="M12.5734 12.4545L12.5834 11.4545L10.5835 11.4345L10.5735 12.4345L12.5734 12.4545ZM10.5113 18.6567C10.5058 19.2089 10.949 19.6611 11.5012 19.6666C12.0535 19.6722 12.5057 19.2289 12.5112 18.6767L10.5113 18.6567ZM10.5735 12.4345L10.5113 18.6567L12.5112 18.6767L12.5734 12.4545L10.5735 12.4345Z" fill="white"/>
<path d="M17.4888 12.4445V11.4445H15.4888V12.4445H17.4888ZM15.4888 16.1778C15.4888 16.7301 15.9365 17.1778 16.4888 17.1778C17.0411 17.1778 17.4888 16.7301 17.4888 16.1778H15.4888ZM15.4888 12.4445V16.1778H17.4888V12.4445H15.4888Z" fill="white"/>
</svg>
