<svg width="18" height="18" viewBox="0 0 18 18" fill="none" xmlns="http://www.w3.org/2000/svg">
<g clip-path="url(#clip0_1_9059)">
<path d="M7.78392 16.0835L15.951 7.91646C17.1177 6.74973 17.1177 5.58301 15.951 4.41628L13.6175 2.08283C12.4508 0.916101 11.2841 0.916101 10.1174 2.08283L1.95028 10.2499C0.783558 11.4166 0.783558 12.5834 1.95028 13.7501L4.28374 16.0835C5.45046 17.2503 6.61719 17.2503 7.78392 16.0835Z" fill="#FF5200" stroke="#FF5200" stroke-width="1.2" stroke-linecap="round"/>
<path d="M9.95844 2.242L9.53418 1.81773L8.68565 2.66626L9.10992 3.09052L9.95844 2.242ZM12.0267 6.00734C12.261 6.24165 12.6409 6.24165 12.8753 6.00734C13.1096 5.77302 13.1096 5.39313 12.8753 5.15881L12.0267 6.00734ZM9.10992 3.09052L12.0267 6.00734L12.8753 5.15881L9.95844 2.242L9.10992 3.09052Z" fill="white"/>
<path d="M2.95796 9.24224L2.53369 8.81798L1.68516 9.6665L2.10943 10.0908L2.95796 9.24224ZM4.44288 12.4242C4.67719 12.6585 5.05709 12.6585 5.29141 12.4242C5.52572 12.1899 5.52572 11.81 5.29141 11.5757L4.44288 12.4242ZM2.10943 10.0908L4.44288 12.4242L5.29141 11.5757L2.95796 9.24224L2.10943 10.0908Z" fill="white"/>
<path d="M5.32484 6.88384L4.90484 6.45535L4.04787 7.29535L4.46787 7.72384L5.32484 6.88384ZM7.35552 10.6698C7.58748 10.9065 7.96736 10.9103 8.204 10.6783C8.44065 10.4463 8.44445 10.0665 8.21249 9.82982L7.35552 10.6698ZM4.46787 7.72384L7.35552 10.6698L8.21249 9.82982L5.32484 6.88384L4.46787 7.72384Z" fill="white"/>
<path d="M7.62446 4.57549L7.2002 4.15123L6.35167 4.99976L6.77593 5.42402L7.62446 4.57549ZM8.52602 7.17411C8.76034 7.40842 9.14023 7.40842 9.37455 7.17411C9.60886 6.93979 9.60886 6.5599 9.37455 6.32558L8.52602 7.17411ZM6.77593 5.42402L8.52602 7.17411L9.37455 6.32558L7.62446 4.57549L6.77593 5.42402Z" fill="white"/>
</g>
<defs>
<clipPath id="clip0_1_9059">
<rect width="18" height="18" fill="white"/>
</clipPath>
</defs>
</svg>
