<svg width="28" height="28" viewBox="0 0 28 28" fill="none" xmlns="http://www.w3.org/2000/svg">
<path d="M3.11122 4.66663L1.55566 6.22219L3.11122 7.77774" stroke="#111111" stroke-width="2" stroke-linecap="round" stroke-linejoin="round"/>
<path d="M24.8888 4.66663L26.4443 6.22219L24.8888 7.77774" stroke="#111111" stroke-width="2" stroke-linecap="round" stroke-linejoin="round"/>
<path d="M24.889 6.22217H1.55566" stroke="#111111" stroke-width="2" stroke-linecap="round" stroke-linejoin="round"/>
<path d="M5.289 24.8889H22.7112C25.2001 24.8889 26.4446 23.6445 26.4446 21.1556V16.1778C26.4446 13.6889 25.2001 12.4445 22.7112 12.4445H5.289C2.80011 12.4445 1.55566 13.6889 1.55566 16.1778V21.1556C1.55566 23.6445 2.80011 24.8889 5.289 24.8889Z" stroke="#111111" stroke-width="2" stroke-linecap="round"/>
<path d="M21.4668 12.4445V18.6667" stroke="#111111" stroke-width="2" stroke-linecap="round"/>
<path d="M6.53369 12.4445V17.4222" stroke="#111111" stroke-width="2" stroke-linecap="round"/>
<path d="M11.5735 12.4445L11.5112 18.6667" stroke="#111111" stroke-width="2" stroke-linecap="round"/>
<path d="M16.4888 12.4445V16.1778" stroke="#111111" stroke-width="2" stroke-linecap="round"/>
</svg>
