<svg width="18" height="18" viewBox="0 0 18 18" fill="none" xmlns="http://www.w3.org/2000/svg">
<path d="M2 3L1 4.00001L2 5" stroke="#111111" stroke-width="1.2" stroke-linecap="round" stroke-linejoin="round"/>
<path d="M16 3L17 4.00001L16 5" stroke="#111111" stroke-width="1.2" stroke-linecap="round" stroke-linejoin="round"/>
<path d="M16 4H1" stroke="#111111" stroke-width="1.2" stroke-linecap="round" stroke-linejoin="round"/>
<path d="M3.4 16H14.6C16.2 16 17 15.2 17 13.6V10.4C17 8.8 16.2 8 14.6 8H3.4C1.8 8 1 8.8 1 10.4V13.6C1 15.2 1.8 16 3.4 16Z" stroke="#111111" stroke-width="1.2" stroke-linecap="round"/>
<path d="M13.7998 8V12" stroke="#111111" stroke-width="1.2" stroke-linecap="round"/>
<path d="M4.2002 8V11.2" stroke="#111111" stroke-width="1.2" stroke-linecap="round"/>
<path d="M7.4399 8L7.3999 12" stroke="#111111" stroke-width="1.2" stroke-linecap="round"/>
<path d="M10.6001 8V10.4" stroke="#111111" stroke-width="1.2" stroke-linecap="round"/>
</svg>
