<svg width="20" height="20" viewBox="0 0 20 20" fill="none" xmlns="http://www.w3.org/2000/svg">
<path d="M9.68745 16.875H16.2734C16.3527 16.8761 16.4314 16.8612 16.5048 16.8313C16.5783 16.8015 16.645 16.7572 16.7011 16.7011C16.7572 16.6451 16.8014 16.5783 16.8313 16.5049C16.8612 16.4314 16.876 16.3527 16.8749 16.2734V9.6875C16.8749 7.78126 16.1177 5.95309 14.7698 4.60517C13.4219 3.25725 11.5937 2.5 9.68745 2.5V2.5C8.74357 2.5 7.80894 2.68591 6.93691 3.04712C6.06488 3.40832 5.27254 3.93775 4.60512 4.60517C3.9377 5.27259 3.40827 6.06494 3.04706 6.93696C2.68586 7.80899 2.49995 8.74362 2.49995 9.6875V9.6875C2.49995 10.6314 2.68586 11.566 3.04706 12.438C3.40827 13.3101 3.9377 14.1024 4.60512 14.7698C5.27254 15.4373 6.06488 15.9667 6.93691 16.3279C7.80894 16.6891 8.74357 16.875 9.68745 16.875V16.875Z" stroke="white" stroke-width="1.5" stroke-linecap="round" stroke-linejoin="round"/>
<path d="M12.1875 8H7.5" stroke="white" stroke-width="1.5" stroke-linecap="round" stroke-linejoin="round"/>
<path d="M12.1875 11.25H7.5" stroke="white" stroke-width="1.5" stroke-linecap="round" stroke-linejoin="round"/>
</svg>
