<svg width="18" height="18" viewBox="0 0 18 18" fill="none" xmlns="http://www.w3.org/2000/svg">
<g clip-path="url(#clip0_1_9373)">
<circle cx="9" cy="9" r="9" fill="#1859D8"/>
<path fill-rule="evenodd" clip-rule="evenodd" d="M11.3279 14.3517C11.3459 14.4477 11.2919 14.5497 11.2019 14.5858C10.5239 14.8559 9.77991 15 9.01192 15C7.68595 15 6.46196 14.5738 5.47198 13.8414C5.38798 13.7814 5.364 13.6613 5.418 13.5713C5.74799 12.983 7.03794 11.092 9.88788 10.0355C9.99588 9.99348 10.1159 10.0475 10.1519 10.1556C10.8659 12.0705 11.2019 13.6913 11.3279 14.3517Z" fill="white"/>
<path fill-rule="evenodd" clip-rule="evenodd" d="M14.8915 10.1313C14.6155 11.6081 13.7875 12.8927 12.6296 13.7691C12.5036 13.8652 12.3236 13.7931 12.2936 13.6431C12.1676 12.9947 11.8616 11.596 11.2736 9.93321C11.2316 9.80715 11.3156 9.66908 11.4476 9.65107C12.9416 9.47098 14.2495 9.75912 14.7415 9.89118C14.8435 9.9272 14.9095 10.0293 14.8915 10.1313Z" fill="white"/>
<path fill-rule="evenodd" clip-rule="evenodd" d="M14.7536 8.8886C14.1416 8.78054 12.5816 8.55242 10.9856 8.7265C10.8896 8.73851 10.8056 8.68448 10.7636 8.59444C10.7396 8.54041 10.7216 8.48639 10.6976 8.43236C10.6016 8.21025 10.4996 7.98214 10.3976 7.76003C10.3437 7.65198 10.3976 7.51991 10.5056 7.47188C12.1856 6.74552 13.1216 5.80905 13.4876 5.38884C13.5776 5.28679 13.7336 5.29281 13.8176 5.40086C14.5076 6.31932 14.9336 7.44187 14.9995 8.65447C15.0055 8.80455 14.8856 8.91261 14.7536 8.8886Z" fill="white"/>
<path fill-rule="evenodd" clip-rule="evenodd" d="M12.864 4.66883C12.552 5.04702 11.676 5.94746 10.014 6.60778C9.91803 6.64981 9.80403 6.60778 9.75003 6.51173C8.98205 5.11904 8.16605 3.94846 7.78806 3.4202C7.69806 3.29414 7.77008 3.11405 7.92008 3.09004C8.26807 3.03001 8.63406 3 9.00605 3C10.458 3 11.796 3.51625 12.834 4.38068C12.924 4.44671 12.936 4.57879 12.864 4.66883Z" fill="white"/>
<path fill-rule="evenodd" clip-rule="evenodd" d="M8.41225 7.09992C6.1383 7.67021 4.12831 7.74825 3.39632 7.76025C3.25833 7.76025 3.15635 7.62819 3.19235 7.49612C3.62434 5.81528 4.77631 4.41059 6.29428 3.6362C6.38428 3.58818 6.49827 3.61818 6.55827 3.70223C6.87027 4.13444 7.71625 5.35306 8.54423 6.78777C8.61023 6.90783 8.55025 7.0639 8.41225 7.09992Z" fill="white"/>
<path fill-rule="evenodd" clip-rule="evenodd" d="M9.55172 8.75673C9.60571 8.87079 9.53973 9.00885 9.41974 9.05087C6.76179 9.9093 5.17182 12.0404 4.69183 12.7727C4.61383 12.8928 4.44583 12.8988 4.35583 12.7907C3.51585 11.7582 3.00586 10.5756 3.00586 9.14091V9.03287C3.00586 8.91281 3.10185 8.81675 3.22185 8.82276C3.97783 8.85277 6.44379 8.75072 9.00574 8.01235C9.10174 7.98233 9.20972 8.03037 9.25172 8.12042C9.35372 8.33052 9.45572 8.54063 9.55172 8.75673Z" fill="white"/>
</g>
<defs>
<clipPath id="clip0_1_9373">
<rect width="18" height="18" fill="white"/>
</clipPath>
</defs>
</svg>
