<svg width="24" height="32" viewBox="0 0 24 32" fill="none" xmlns="http://www.w3.org/2000/svg">
<path d="M12 31.9999C11.6938 32.0022 11.3946 31.9087 11.144 31.7325C10.8933 31.5562 10.7038 31.3059 10.6017 31.0165C9.03652 26.6907 3.19827 20.2149 3.13566 20.1469L3.09913 20.0998C1.54178 18.3731 0.517571 16.2304 0.150716 13.9316C-0.216138 11.6328 0.0901156 9.27674 1.03234 7.14901C1.97457 5.02128 3.5123 3.21332 5.45906 1.94437C7.40581 0.675425 9.67797 0 12 0C14.322 0 16.5942 0.675425 18.5409 1.94437C20.4877 3.21332 22.0254 5.02128 22.9677 7.14901C23.9099 9.27674 24.2161 11.6328 23.8493 13.9316C23.4824 16.2304 22.4582 18.3731 20.9009 20.0998L20.8643 20.1469C20.8017 20.2149 14.9635 26.6907 13.3983 31.0165C13.2969 31.3064 13.1075 31.5571 12.8567 31.7335C12.6059 31.9098 12.3063 32.003 12 31.9999Z" fill="white"/>
<path d="M23 12.0239C23 9.10015 21.8411 6.29619 19.7782 4.22881C17.7153 2.16144 14.9174 1 12 1C9.08262 1 6.28472 2.16144 4.22182 4.22881C2.15892 6.29619 1 9.10015 1 12.0239C1.00008 14.7731 2.03011 17.4221 3.88619 19.4466C3.88619 19.4466 9.92571 26.1082 11.5914 30.7014C11.6211 30.7885 11.6772 30.8641 11.7518 30.9177C11.8265 30.9712 11.916 31 12.0079 31C12.0997 31 12.1892 30.9712 12.2639 30.9177C12.3385 30.8641 12.3946 30.7885 12.4243 30.7014C14.09 26.1082 20.1243 19.4466 20.1243 19.4466C21.977 17.4208 23.0033 14.7718 23 12.0239Z" fill="#1859D8"/>
<g clip-path="url(#clip0_1_9508)">
<circle cx="12" cy="12" r="9" fill="#1859D8"/>
<path fill-rule="evenodd" clip-rule="evenodd" d="M14.3279 17.3517C14.3459 17.4477 14.2919 17.5497 14.2019 17.5858C13.5239 17.8559 12.7799 18 12.0119 18C10.6859 18 9.46196 17.5738 8.47198 16.8414C8.38798 16.7814 8.364 16.6613 8.418 16.5713C8.74799 15.983 10.0379 14.092 12.8879 13.0355C12.9959 12.9935 13.1159 13.0475 13.1519 13.1556C13.8659 15.0705 14.2019 16.6913 14.3279 17.3517Z" fill="white"/>
<path fill-rule="evenodd" clip-rule="evenodd" d="M17.8915 13.1313C17.6155 14.6081 16.7875 15.8927 15.6296 16.7691C15.5036 16.8652 15.3236 16.7931 15.2936 16.6431C15.1676 15.9947 14.8616 14.596 14.2736 12.9332C14.2316 12.8071 14.3156 12.6691 14.4476 12.6511C15.9416 12.471 17.2495 12.7591 17.7415 12.8912C17.8435 12.9272 17.9095 13.0293 17.8915 13.1313Z" fill="white"/>
<path fill-rule="evenodd" clip-rule="evenodd" d="M17.7536 11.8886C17.1416 11.7805 15.5816 11.5524 13.9856 11.7265C13.8896 11.7385 13.8056 11.6845 13.7636 11.5944C13.7396 11.5404 13.7216 11.4864 13.6976 11.4324C13.6016 11.2103 13.4996 10.9821 13.3976 10.76C13.3437 10.652 13.3976 10.5199 13.5056 10.4719C15.1856 9.74552 16.1216 8.80905 16.4876 8.38884C16.5776 8.28679 16.7336 8.29281 16.8176 8.40086C17.5076 9.31932 17.9336 10.4419 17.9995 11.6545C18.0055 11.8045 17.8856 11.9126 17.7536 11.8886Z" fill="white"/>
<path fill-rule="evenodd" clip-rule="evenodd" d="M15.864 7.66883C15.552 8.04702 14.676 8.94746 13.014 9.60778C12.918 9.64981 12.804 9.60778 12.75 9.51173C11.982 8.11904 11.1661 6.94846 10.7881 6.4202C10.6981 6.29414 10.7701 6.11405 10.9201 6.09004C11.2681 6.03001 11.6341 6 12.0061 6C13.458 6 14.796 6.51625 15.834 7.38068C15.924 7.44671 15.936 7.57879 15.864 7.66883Z" fill="white"/>
<path fill-rule="evenodd" clip-rule="evenodd" d="M11.4123 10.0999C9.1383 10.6702 7.12831 10.7482 6.39632 10.7603C6.25833 10.7603 6.15635 10.6282 6.19235 10.4961C6.62434 8.81528 7.77631 7.41059 9.29428 6.6362C9.38428 6.58818 9.49827 6.61818 9.55827 6.70223C9.87027 7.13444 10.7162 8.35306 11.5442 9.78777C11.6102 9.90783 11.5503 10.0639 11.4123 10.0999Z" fill="white"/>
<path fill-rule="evenodd" clip-rule="evenodd" d="M12.5517 11.7567C12.6057 11.8708 12.5397 12.0089 12.4197 12.0509C9.76179 12.9093 8.17182 15.0404 7.69183 15.7727C7.61383 15.8928 7.44583 15.8988 7.35583 15.7907C6.51585 14.7582 6.00586 13.5756 6.00586 12.1409V12.0329C6.00586 11.9128 6.10185 11.8168 6.22185 11.8228C6.97783 11.8528 9.44379 11.7507 12.0057 11.0123C12.1017 10.9823 12.2097 11.0304 12.2517 11.1204C12.3537 11.3305 12.4557 11.5406 12.5517 11.7567Z" fill="white"/>
</g>
<defs>
<clipPath id="clip0_1_9508">
<rect width="18" height="18" fill="white" transform="translate(3 3)"/>
</clipPath>
</defs>
</svg>
