<svg width="18" height="20" viewBox="0 0 18 20" fill="none" xmlns="http://www.w3.org/2000/svg">
<path d="M9.80972 18.5381L10.2435 18.9526L9.80972 18.5381ZM8.44028 18.5381L8.00648 18.9526H8.00648L8.44028 18.5381ZM15.65 8.3125C15.65 8.97574 15.4028 9.79977 14.9543 10.7287C14.5105 11.6479 13.8941 12.6205 13.2122 13.5671C11.8487 15.4599 10.2602 17.1982 9.37593 18.1236L10.2435 18.9526C11.1437 18.0105 12.7754 16.2264 14.1859 14.2685C14.891 13.2898 15.55 12.2549 16.035 11.2504C16.5152 10.2557 16.85 9.23972 16.85 8.3125H15.65ZM9.125 1.7875C12.7287 1.7875 15.65 4.70884 15.65 8.3125H16.85C16.85 4.0461 13.3914 0.5875 9.125 0.5875V1.7875ZM2.6 8.3125C2.6 4.70884 5.52134 1.7875 9.125 1.7875V0.5875C4.8586 0.5875 1.4 4.0461 1.4 8.3125H2.6ZM8.87407 18.1236C7.98982 17.1982 6.40134 15.4599 5.03779 13.5671C4.35586 12.6205 3.73946 11.6479 3.29568 10.7287C2.8472 9.79977 2.6 8.97574 2.6 8.3125H1.4C1.4 9.23972 1.73477 10.2557 2.21502 11.2504C2.69997 12.2549 3.35905 13.2898 4.06413 14.2685C5.4746 16.2264 7.10625 18.0105 8.00648 18.9526L8.87407 18.1236ZM9.37593 18.1236C9.23585 18.2702 9.01415 18.2702 8.87407 18.1236L8.00648 18.9526C8.6192 19.5938 9.6308 19.5938 10.2435 18.9526L9.37593 18.1236ZM11.4937 7.71875C11.4937 9.02697 10.4332 10.0875 9.125 10.0875V11.2875C11.096 11.2875 12.6938 9.68972 12.6938 7.71875H11.4937ZM9.125 5.35C10.4332 5.35 11.4937 6.41053 11.4937 7.71875H12.6938C12.6938 5.74778 11.096 4.15 9.125 4.15V5.35ZM6.75625 7.71875C6.75625 6.41053 7.81678 5.35 9.125 5.35V4.15C7.15403 4.15 5.55625 5.74778 5.55625 7.71875H6.75625ZM9.125 10.0875C7.81678 10.0875 6.75625 9.02697 6.75625 7.71875H5.55625C5.55625 9.68972 7.15403 11.2875 9.125 11.2875V10.0875Z" fill="#111111"/>
</svg>
