<svg width="24" height="32" viewBox="0 0 24 32" fill="none" xmlns="http://www.w3.org/2000/svg">
<path d="M12 31.9999C11.6938 32.0022 11.3946 31.9087 11.144 31.7325C10.8933 31.5562 10.7038 31.3059 10.6017 31.0165C9.03652 26.6907 3.19827 20.2149 3.13566 20.1469L3.09913 20.0998C1.54178 18.3731 0.517571 16.2304 0.150716 13.9316C-0.216138 11.6328 0.0901156 9.27674 1.03234 7.14901C1.97457 5.02128 3.5123 3.21332 5.45906 1.94437C7.40581 0.675425 9.67797 0 12 0C14.322 0 16.5942 0.675425 18.5409 1.94437C20.4877 3.21332 22.0254 5.02128 22.9677 7.14901C23.9099 9.27674 24.2161 11.6328 23.8493 13.9316C23.4824 16.2304 22.4582 18.3731 20.9009 20.0998L20.8643 20.1469C20.8017 20.2149 14.9635 26.6907 13.3983 31.0165C13.2969 31.3064 13.1075 31.5571 12.8567 31.7335C12.6059 31.9098 12.3063 32.003 12 31.9999Z" fill="white"/>
<path d="M23 12.0239C23 9.10015 21.8411 6.29619 19.7782 4.22881C17.7153 2.16144 14.9174 1 12 1C9.08262 1 6.28472 2.16144 4.22182 4.22881C2.15892 6.29619 1 9.10015 1 12.0239C1.00008 14.7731 2.03011 17.4221 3.88619 19.4466C3.88619 19.4466 9.92571 26.1082 11.5914 30.7014C11.6211 30.7885 11.6772 30.8641 11.7518 30.9177C11.8265 30.9712 11.916 31 12.0079 31C12.0997 31 12.1892 30.9712 12.2639 30.9177C12.3385 30.8641 12.3946 30.7885 12.4243 30.7014C14.09 26.1082 20.1243 19.4466 20.1243 19.4466C21.977 17.4208 23.0033 14.7718 23 12.0239Z" fill="#FF23A7"/>
<g clip-path="url(#clip0_1_9528)">
<circle cx="12" cy="12" r="9" fill="#FF23A7"/>
<path fill-rule="evenodd" clip-rule="evenodd" d="M12 8.37809C12.606 7.54382 13.578 7 14.664 7C16.506 7 18 8.54494 18 10.4545C18 11.1899 17.886 11.8697 17.688 12.5C16.74 15.5899 13.818 17.4376 12.372 17.9444C12.168 18.0185 11.832 18.0185 11.628 17.9444C10.182 17.4376 7.26 15.5899 6.312 12.5C6.114 11.8697 6 11.1899 6 10.4545C6 8.54494 7.494 7 9.336 7C10.422 7 11.394 7.54382 12 8.37809ZM11.1429 11.6429V9.5H12.8571V11.6429H15V13.3571H12.8571V15.5H11.1429V13.3571H9V11.6429H11.1429Z" fill="white"/>
</g>
<defs>
<clipPath id="clip0_1_9528">
<rect width="18" height="18" fill="white" transform="translate(3 3)"/>
</clipPath>
</defs>
</svg>
