<svg width="18" height="18" viewBox="0 0 18 18" fill="none" xmlns="http://www.w3.org/2000/svg">
<g clip-path="url(#clip0_1_9407)">
<circle cx="9" cy="9" r="9" fill="#FF23A7"/>
<path fill-rule="evenodd" clip-rule="evenodd" d="M9 5.37809C9.606 4.54382 10.578 4 11.664 4C13.506 4 15 5.54494 15 7.45449C15 8.18989 14.886 8.86966 14.688 9.5C13.74 12.5899 10.818 14.4376 9.372 14.9444C9.168 15.0185 8.832 15.0185 8.628 14.9444C7.182 14.4376 4.26 12.5899 3.312 9.5C3.114 8.86966 3 8.18989 3 7.45449C3 5.54494 4.494 4 6.336 4C7.422 4 8.394 4.54382 9 5.37809ZM8.14286 8.64286V6.5H9.85714V8.64286H12V10.3571H9.85714V12.5H8.14286V10.3571H6V8.64286H8.14286Z" fill="white"/>
</g>
<defs>
<clipPath id="clip0_1_9407">
<rect width="18" height="18" fill="white"/>
</clipPath>
</defs>
</svg>
