<svg width="24" height="32" viewBox="0 0 24 32" fill="none" xmlns="http://www.w3.org/2000/svg">
<path d="M12 31.9999C11.6938 32.0022 11.3946 31.9087 11.144 31.7325C10.8933 31.5562 10.7038 31.3059 10.6017 31.0165C9.03652 26.6907 3.19827 20.2149 3.13566 20.1469L3.09913 20.0998C1.54178 18.3731 0.517571 16.2304 0.150716 13.9316C-0.216138 11.6328 0.0901156 9.27674 1.03234 7.14901C1.97457 5.02128 3.5123 3.21332 5.45906 1.94437C7.40581 0.675425 9.67797 0 12 0C14.322 0 16.5942 0.675425 18.5409 1.94437C20.4877 3.21332 22.0254 5.02128 22.9677 7.14901C23.9099 9.27674 24.2161 11.6328 23.8493 13.9316C23.4824 16.2304 22.4582 18.3731 20.9009 20.0998L20.8643 20.1469C20.8017 20.2149 14.9635 26.6907 13.3983 31.0165C13.2969 31.3064 13.1075 31.5571 12.8567 31.7335C12.6059 31.9098 12.3063 32.003 12 31.9999Z" fill="white"/>
<path d="M23 12.0239C23 9.10015 21.8411 6.29619 19.7782 4.22881C17.7153 2.16144 14.9174 1 12 1C9.08262 1 6.28472 2.16144 4.22182 4.22881C2.15892 6.29619 1 9.10015 1 12.0239C1.00008 14.7731 2.03011 17.4221 3.88619 19.4466C3.88619 19.4466 9.92571 26.1082 11.5914 30.7014C11.6211 30.7885 11.6772 30.8641 11.7518 30.9177C11.8265 30.9712 11.916 31 12.0079 31C12.0997 31 12.1892 30.9712 12.2639 30.9177C12.3385 30.8641 12.3946 30.7885 12.4243 30.7014C14.09 26.1082 20.1243 19.4466 20.1243 19.4466C21.977 17.4208 23.0033 14.7718 23 12.0239Z" fill="#00A1D4"/>
<g clip-path="url(#clip0_899_7262)">
<circle cx="12" cy="12" r="9" fill="#00A2D5"/>
<path d="M12.4996 11.4675C12.4997 11.4675 12.4997 11.4676 12.4997 11.4676C12.4869 12.2204 12.1901 12.9164 11.7239 13.4513C11.437 13.7803 11.0852 14.0488 10.6959 14.2313C10.3523 14.3927 9.97947 14.4873 9.59495 14.4992C9.57225 14.4996 9.54993 14.5 9.52686 14.4996C9.51797 14.5 9.50908 14.5 9.50019 14.5C9.46822 14.5 9.43702 14.5 9.40543 14.4992C9.0245 14.4877 8.65549 14.3942 8.31467 14.2359C7.28688 13.7587 6.52201 12.6874 6.50044 11.4675C6.48342 10.4671 6.9574 9.53054 7.50099 8.70927C7.7446 8.3412 7.98065 7.97213 8.21291 7.60148C8.21612 7.59632 8.21896 7.59176 8.22218 7.5866C8.34568 7.38996 8.46825 7.19214 8.5893 6.99431C8.6258 6.93617 8.66174 6.87764 8.69729 6.81891C8.82286 6.61431 8.94789 6.40923 9.07288 6.20363C9.26772 5.88315 9.73243 5.88306 9.92718 6.2036C10.4394 7.0467 10.9508 7.88084 11.499 8.70927C12.043 9.53051 12.5165 10.467 12.4996 11.4674C12.4996 11.4675 12.4996 11.4675 12.4996 11.4675Z" fill="white"/>
<path d="M17.4998 12.4784C17.4998 12.4784 17.4998 12.4784 17.4998 12.4784C17.4912 12.9803 17.2934 13.4443 16.9826 13.8009C16.7913 14.0202 16.5568 14.1992 16.2973 14.3209C16.0682 14.4284 15.8196 14.4915 15.5633 14.4995C15.5482 14.4997 15.5333 14.5 15.5179 14.4997C15.512 14.5 15.5061 14.5 15.5001 14.5C15.4788 14.5 15.458 14.5 15.437 14.4995C15.183 14.4918 14.937 14.4295 14.7098 14.3239C14.0246 14.0058 13.5147 13.2916 13.5003 12.4784C13.4889 11.8114 13.8049 11.187 14.1673 10.6395C14.3297 10.3941 14.4871 10.1481 14.6419 9.90099C14.6441 9.89755 14.646 9.89451 14.6481 9.89107C14.7305 9.75998 14.8122 9.62809 14.8929 9.49621C14.9172 9.45745 14.9412 9.41843 14.9649 9.37927C15.0008 9.32071 15.0367 9.26209 15.0725 9.20341C15.268 8.88331 15.7321 8.88324 15.9274 9.20345C16.2217 9.68588 16.5181 10.1641 16.8327 10.6395C17.1953 11.187 17.511 11.8114 17.4997 12.4783C17.4997 12.4783 17.4997 12.4784 17.4998 12.4784Z" fill="white"/>
<path d="M6 16.5C7.00077 16.5 7.00077 17.5 7.99847 17.5C8.99617 17.5 8.99923 16.5 9.99694 16.5C10.9946 16.5 10.9946 17.5 11.9954 17.5C12.9962 17.5 12.9962 16.5 13.9969 16.5C14.9977 16.5 14.9977 17.5 15.9985 17.5C16.9992 17.5 16.9992 16.5 18 16.5" stroke="white" stroke-miterlimit="10" stroke-linecap="round"/>
<path d="M6 13.5C7.00077 13.5 7.00077 14.5 7.99847 14.5C8.99617 14.5 8.99924 13.5 9.99694 13.5C10.9946 13.5 10.9946 14.5 11.9954 14.5C12.9962 14.5 12.9962 13.5 13.9969 13.5C14.9977 13.5 14.9977 14.5 15.9985 14.5C16.9992 14.5 16.9992 13.5 18 13.5" stroke="#00A1D4" stroke-miterlimit="10" stroke-linecap="round"/>
<path d="M6 14.5C7.00077 14.5 7.00077 15.5 7.99847 15.5C8.99617 15.5 8.99923 14.5 9.99694 14.5C10.9946 14.5 10.9946 15.5 11.9954 15.5C12.9962 15.5 12.9962 14.5 13.9969 14.5C14.9977 14.5 14.9977 15.5 15.9985 15.5C16.9992 15.5 16.9992 14.5 18 14.5" stroke="white" stroke-miterlimit="10" stroke-linecap="round"/>
</g>
<defs>
<clipPath id="clip0_899_7262">
<rect width="18" height="18" fill="white" transform="translate(3 3)"/>
</clipPath>
</defs>
</svg>
