<svg width="18" height="18" viewBox="0 0 18 18" fill="none" xmlns="http://www.w3.org/2000/svg">
<g clip-path="url(#clip0_899_7233)">
<circle cx="9" cy="9" r="9" fill="#00A2D5"/>
<path d="M9.49965 8.46753C9.4997 8.46753 9.49974 8.46757 9.49974 8.46762C9.48686 9.22039 9.1901 9.91642 8.7239 10.4513C8.43697 10.7803 8.08517 11.0488 7.69593 11.2313C7.35226 11.3927 6.97947 11.4873 6.59495 11.4992C6.57225 11.4996 6.54993 11.5 6.52686 11.4996C6.51797 11.5 6.50908 11.5 6.50019 11.5C6.46822 11.5 6.43702 11.5 6.40543 11.4992C6.0245 11.4877 5.65549 11.3942 5.31467 11.2359C4.28688 10.7587 3.52201 9.68742 3.50044 8.46753C3.48342 7.46708 3.9574 6.53054 4.50099 5.70927C4.7446 5.3412 4.98065 4.97213 5.21291 4.60148C5.21612 4.59632 5.21896 4.59176 5.22218 4.5866C5.34568 4.38996 5.46825 4.19214 5.5893 3.99431C5.6258 3.93617 5.66174 3.87764 5.69729 3.81891C5.82286 3.61431 5.94789 3.40923 6.07288 3.20363C6.26772 2.88315 6.73243 2.88306 6.92718 3.2036C7.43943 4.0467 7.95084 4.88084 8.49901 5.70927C9.04296 6.53051 9.51655 7.46703 9.49956 8.46743C9.49956 8.46748 9.4996 8.46753 9.49965 8.46753Z" fill="white"/>
<path d="M14.4998 9.47835C14.4998 9.47835 14.4998 9.47838 14.4998 9.47841C14.4912 9.98026 14.2934 10.4443 13.9826 10.8009C13.7913 11.0202 13.5568 11.1992 13.2973 11.3209C13.0682 11.4284 12.8196 11.4915 12.5633 11.4995C12.5482 11.4997 12.5333 11.5 12.5179 11.4997C12.512 11.5 12.5061 11.5 12.5001 11.5C12.4788 11.5 12.458 11.5 12.437 11.4995C12.183 11.4918 11.937 11.4295 11.7098 11.3239C11.0246 11.0058 10.5147 10.2916 10.5003 9.47835C10.4889 8.81139 10.8049 8.18702 11.1673 7.63951C11.3297 7.39413 11.4871 7.14809 11.6419 6.90099C11.6441 6.89755 11.646 6.89451 11.6481 6.89107C11.7305 6.75998 11.8122 6.62809 11.8929 6.49621C11.9172 6.45745 11.9412 6.41843 11.9649 6.37927C12.0008 6.32071 12.0367 6.26209 12.0725 6.20341C12.268 5.88331 12.7321 5.88324 12.9274 6.20345C13.2217 6.68588 13.5181 7.16411 13.8327 7.63951C14.1953 8.18701 14.511 8.81135 14.4997 9.47829C14.4997 9.47832 14.4997 9.47835 14.4998 9.47835Z" fill="white"/>
<path d="M3 13.5C4.00077 13.5 4.00077 14.5 4.99847 14.5C5.99617 14.5 5.99923 13.5 6.99694 13.5C7.99464 13.5 7.99464 14.5 8.99541 14.5C9.99617 14.5 9.99617 13.5 10.9969 13.5C11.9977 13.5 11.9977 14.5 12.9985 14.5C13.9992 14.5 13.9992 13.5 15 13.5" stroke="white" stroke-miterlimit="10" stroke-linecap="round"/>
<path d="M3 10.5C4.00077 10.5 4.00077 11.5 4.99847 11.5C5.99617 11.5 5.99924 10.5 6.99694 10.5C7.99464 10.5 7.99464 11.5 8.99541 11.5C9.99618 11.5 9.99617 10.5 10.9969 10.5C11.9977 10.5 11.9977 11.5 12.9985 11.5C13.9992 11.5 13.9992 10.5 15 10.5" stroke="#00A1D4" stroke-miterlimit="10" stroke-linecap="round"/>
<path d="M3 11.5C4.00077 11.5 4.00077 12.5 4.99847 12.5C5.99617 12.5 5.99923 11.5 6.99694 11.5C7.99464 11.5 7.99464 12.5 8.99541 12.5C9.99617 12.5 9.99617 11.5 10.9969 11.5C11.9977 11.5 11.9977 12.5 12.9985 12.5C13.9992 12.5 13.9992 11.5 15 11.5" stroke="white" stroke-miterlimit="10" stroke-linecap="round"/>
</g>
<defs>
<clipPath id="clip0_899_7233">
<rect width="18" height="18" fill="white"/>
</clipPath>
</defs>
</svg>
