<svg width="18" height="18" viewBox="0 0 18 18" fill="none" xmlns="http://www.w3.org/2000/svg">
<path fill-rule="evenodd" clip-rule="evenodd" d="M13.7937 8.3014C14.026 8.06508 14.026 7.68193 13.7937 7.44561C13.5615 7.20929 13.1848 7.20929 12.9525 7.44561L9.59539 10.861V1.50016C9.59539 1.16595 9.32908 0.89502 9.00057 0.89502C8.67206 0.89502 8.40576 1.16595 8.40576 1.50016V10.861L5.0486 7.44561C4.81631 7.20929 4.43969 7.20929 4.2074 7.44561C3.97511 7.68193 3.97511 8.06508 4.2074 8.30141L8.57997 12.7498C8.81226 12.9862 9.18888 12.9862 9.42117 12.7498L13.7937 8.3014ZM2.2 12.8863C2.2 12.5549 1.93137 12.2863 1.6 12.2863C1.26863 12.2863 1 12.5549 1 12.8863V15.8979C1 16.2292 1.26863 16.4979 1.6 16.4979H16.4011C16.7325 16.4979 17.0011 16.2292 17.0011 15.8979V12.8863C17.0011 12.5549 16.7325 12.2863 16.4011 12.2863C16.0697 12.2863 15.8011 12.5549 15.8011 12.8863V15.2979H2.2V12.8863Z" fill="#111111"/>
</svg>
