<svg width="20" height="20" viewBox="0 0 20 20" fill="none" xmlns="http://www.w3.org/2000/svg">
<path d="M1.5 7C4.1449 10.3961 11.2817 15.1506 18.6697 7" stroke="#BBBBBB" stroke-width="2" stroke-linecap="round"/>
<path d="M8.95728 14.8418C8.95728 15.3941 9.40499 15.8418 9.95728 15.8418C10.5096 15.8418 10.9573 15.3941 10.9573 14.8418H8.95728ZM8.95728 11.4993V14.8418H10.9573V11.4993H8.95728Z" fill="#BBBBBB"/>
<path d="M2.35348 12.0286C1.99491 12.4487 2.04475 13.0799 2.46481 13.4385C2.88486 13.797 3.51606 13.7472 3.87463 13.3271L2.35348 12.0286ZM4.5236 9.4864L2.35348 12.0286L3.87463 13.3271L6.04476 10.7849L4.5236 9.4864Z" fill="#BBBBBB"/>
<path d="M16.6814 13.1479C17.085 13.5249 17.7178 13.5033 18.0948 13.0997C18.4717 12.6961 18.4501 12.0633 18.0465 11.6863L16.6814 13.1479ZM14.2386 10.8665L16.6814 13.1479L18.0465 11.6863L15.6037 9.40482L14.2386 10.8665Z" fill="#BBBBBB"/>
</svg>
