<svg width="20" height="20" viewBox="0 0 20 20" fill="none" xmlns="http://www.w3.org/2000/svg">
<path d="M1.5 7C4.1449 10.3961 11.2817 15.1506 18.6697 7" stroke="#BBBBBB" stroke-width="2" stroke-linecap="round"/>
<path d="M8.95703 14.842C8.95703 15.3943 9.40475 15.842 9.95703 15.842C10.5093 15.842 10.957 15.3943 10.957 14.842H8.95703ZM8.95703 11.4995V14.842H10.957V11.4995H8.95703Z" fill="#BBBBBB"/>
<path d="M2.35348 12.0287C1.99491 12.4488 2.04475 13.08 2.46481 13.4386C2.88486 13.7971 3.51606 13.7473 3.87463 13.3272L2.35348 12.0287ZM4.5236 9.48649L2.35348 12.0287L3.87463 13.3272L6.04476 10.785L4.5236 9.48649Z" fill="#BBBBBB"/>
<path d="M16.6811 13.148C17.0848 13.525 17.7176 13.5034 18.0945 13.0998C18.4715 12.6961 18.4499 12.0633 18.0463 11.6864L16.6811 13.148ZM14.2383 10.8666L16.6811 13.148L18.0463 11.6864L15.6035 9.40491L14.2383 10.8666Z" fill="#BBBBBB"/>
</svg>
