<svg width="24" height="24" viewBox="0 0 24 24" fill="none" xmlns="http://www.w3.org/2000/svg">
<path fill-rule="evenodd" clip-rule="evenodd" d="M17.6255 6.62516C18.3848 6.62516 19.0004 6.00963 19.0004 5.25032C19.0004 4.49102 18.3848 3.87549 17.6255 3.87549C16.8662 3.87549 16.2507 4.49102 16.2507 5.25032C16.2507 6.00963 16.8662 6.62516 17.6255 6.62516ZM17.6255 8.62516C19.4894 8.62516 21.0004 7.1142 21.0004 5.25032C21.0004 3.38645 19.4894 1.87549 17.6255 1.87549C15.7617 1.87549 14.2507 3.38645 14.2507 5.25032C14.2507 5.43525 14.2656 5.6167 14.2942 5.79354L8.73719 9.58905C8.12853 8.99281 7.29504 8.6252 6.37569 8.6252C4.51182 8.6252 3.00085 10.1362 3.00085 12C3.00085 13.8639 4.51182 15.3749 6.37569 15.3749C7.29506 15.3749 8.12857 15.0072 8.73723 14.411L14.2942 18.2065C14.2656 18.3833 14.2507 18.5647 14.2507 18.7496C14.2507 20.6135 15.7617 22.1245 17.6255 22.1245C19.4894 22.1245 21.0004 20.6135 21.0004 18.7496C21.0004 16.8858 19.4894 15.3748 17.6255 15.3748C16.6735 15.3748 15.8135 15.769 15.2 16.4031L9.68998 12.6397C9.72972 12.4326 9.75053 12.2188 9.75053 12C9.75053 11.7813 9.72972 11.5674 9.68997 11.3603L15.2 7.59686C15.8136 8.23095 16.6735 8.62516 17.6255 8.62516ZM17.6255 20.1245C18.3848 20.1245 19.0004 19.5089 19.0004 18.7496C19.0004 17.9903 18.3848 17.3748 17.6255 17.3748C16.8662 17.3748 16.2507 17.9903 16.2507 18.7496C16.2507 19.5089 16.8662 20.1245 17.6255 20.1245ZM7.75053 12C7.75053 12.7593 7.13499 13.3749 6.37569 13.3749C5.61639 13.3749 5.00085 12.7593 5.00085 12C5.00085 11.2407 5.61639 10.6252 6.37569 10.6252C7.13499 10.6252 7.75053 11.2407 7.75053 12Z" fill="#111111"/>
</svg>
