<svg width="18" height="18" viewBox="0 0 18 18" fill="none" xmlns="http://www.w3.org/2000/svg">
<g clip-path="url(#clip0_1_9066)">
<path d="M7.35846 1.38989L3.03231 3.7879C2.05204 4.3307 1.25 5.69173 1.25 6.80972V11.387C1.25 12.505 2.05204 13.866 3.03231 14.4088L7.35846 16.815C8.28202 17.3253 9.79698 17.3253 10.7205 16.815L15.0467 14.4088C16.027 13.866 16.829 12.505 16.829 11.387V6.80972C16.829 5.69173 16.027 4.3307 15.0467 3.7879L10.7205 1.38178C9.78888 0.871396 8.28202 0.871396 7.35846 1.38989Z" fill="#FF5200" stroke="#FF5200" stroke-width="1.2" stroke-linecap="round" stroke-linejoin="round"/>
<path d="M1.88184 5.4082L9.03538 9.54802L16.1403 5.43251" stroke="white" stroke-width="1.2" stroke-linecap="round" stroke-linejoin="round"/>
<path d="M9.03564 16.8878V9.53979" stroke="white" stroke-width="1.2" stroke-linecap="round" stroke-linejoin="round"/>
</g>
<defs>
<clipPath id="clip0_1_9066">
<rect width="18" height="18" fill="white"/>
</clipPath>
</defs>
</svg>
