<svg width="24" height="24" viewBox="0 0 24 24" fill="none" xmlns="http://www.w3.org/2000/svg">
<rect width="24" height="24" fill="white"/>
<rect x="3" y="3.75" width="17.25" height="17.25" rx="4" fill="white"/>
<path d="M11 21H7.8C6.11984 21 5.27976 21 4.63803 20.673C4.07354 20.3854 3.6146 19.9265 3.32698 19.362C3 18.7202 3 17.8802 3 16.2V8.8C3 7.11985 3 6.27976 3.32698 5.63803C3.6146 5.07354 4.07354 4.6146 4.63803 4.32698C5.27976 4 6.11984 4 7.8 4H15.2C16.8802 4 17.7202 4 18.362 4.32698C18.9265 4.6146 19.3854 5.07354 19.673 5.63803C20 6.27976 20 7.11985 20 8.8V12" stroke="#111111" stroke-width="1.2" stroke-linecap="round" stroke-linejoin="round"/>
<path d="M9.75 6H13.25C15 6 15 5 15 4C15 2 14.125 2 13.25 2H9.75C8.875 2 8 2 8 4C8 6 8.875 6 9.75 6Z" fill="#FF5200" stroke="#111111" stroke-width="1.2" stroke-miterlimit="10" stroke-linecap="round" stroke-linejoin="round"/>
<path d="M7.125 9.75H13.125" stroke="#111111" stroke-width="1.2" stroke-linecap="round"/>
<path d="M7.5 13.5H10.5" stroke="#111111" stroke-width="1.2" stroke-linecap="round"/>
<path d="M18.2474 15.5879L14.744 19.2202C14.6054 19.3639 14.4768 19.6307 14.4471 19.8256L14.259 21.2108C14.1898 21.7136 14.5263 22.0625 15.0112 21.9906L16.3472 21.7957C16.5353 21.7649 16.8025 21.6315 16.9311 21.4878L20.4345 17.8556C21.0382 17.2297 21.3252 16.5012 20.4345 15.5777C19.5537 14.6645 18.8511 14.962 18.2474 15.5879Z" fill="#FF5200" stroke="#111111" stroke-width="1.2" stroke-miterlimit="10" stroke-linecap="round" stroke-linejoin="round"/>
<path d="M17.7422 16.1113C18.0391 17.2195 18.8704 18.0814 19.9392 18.3892" stroke="#111111" stroke-width="1.2" stroke-miterlimit="10" stroke-linecap="round" stroke-linejoin="round"/>
</svg>
