<svg width="24" height="24" viewBox="0 0 24 24" fill="none" xmlns="http://www.w3.org/2000/svg">
<path d="M4.5 13L4 17.5L5 18.5H7.5L10.5 17.5L17.5 10.5L12 5L4.5 13Z" fill="white"/>
<path d="M17 11L11.5 5.5L15 2L17.5 2.5L19.5 5L20 7L17 11Z" fill="#FF5200"/>
<path d="M13.2594 3.60022L5.04936 12.2902C4.73936 12.6202 4.43936 13.2702 4.37936 13.7202L4.00936 16.9602C3.87936 18.1302 4.71936 18.9302 5.87936 18.7302L9.09936 18.1802C9.54936 18.1002 10.1794 17.7702 10.4894 17.4302L18.6994 8.74022C20.1194 7.24022 20.7594 5.53022 18.5494 3.44022C16.3494 1.37022 14.6794 2.10022 13.2594 3.60022Z" stroke="#111111" stroke-width="1.5" stroke-miterlimit="10" stroke-linecap="round" stroke-linejoin="round"/>
<path d="M11.8906 5.0498C12.3206 7.8098 14.5606 9.9198 17.3406 10.1998" stroke="#111111" stroke-width="1.5" stroke-miterlimit="10" stroke-linecap="round" stroke-linejoin="round"/>
<path d="M3 22H21" stroke="#111111" stroke-width="1.5" stroke-miterlimit="10" stroke-linecap="round" stroke-linejoin="round"/>
</svg>
