<svg width="25" height="24" viewBox="0 0 25 24" fill="none" xmlns="http://www.w3.org/2000/svg">
<path d="M19.0285 18.5921L19.0255 18.5924L18.6904 18.6328L18.6876 18.6331C16.8535 18.8628 14.3074 19.5648 12.2633 20.3649C11.9072 20.5024 11.6 20.2308 11.6 19.9854V5.94696C11.6 5.82568 11.6756 5.67559 11.8553 5.5838C13.7656 4.61925 16.6686 3.75952 18.6134 3.6H18.6541C19.6595 3.6 20.4 4.34852 20.4 5.19004V17.1898C20.4 17.8296 19.8099 18.5018 19.0285 18.5921Z" stroke="#111111" stroke-width="1.2"/>
<path d="M4.3124 18.6331L4.30959 18.6328L3.97446 18.5924L3.97446 18.5924L3.97154 18.5921C3.19009 18.5018 2.6 17.8296 2.6 17.1898V5.19004C2.6 4.34852 3.34049 3.6 4.34595 3.6H4.39744C6.34222 3.75952 9.24524 4.61926 11.1556 5.58382C11.3277 5.67179 11.4 5.80788 11.4 5.94696V19.9854C11.4 20.2308 11.0928 20.5024 10.7367 20.3649C8.69258 19.5648 6.14652 18.8628 4.3124 18.6331Z" stroke="#111111" stroke-width="1.2"/>
<path d="M20.7376 8.67194L16.5855 12.8231C16.4213 12.9873 16.2688 13.2922 16.2336 13.515L16.0107 15.0981C15.9286 15.6727 16.3274 16.0714 16.9021 15.9893L18.4856 15.7665C18.7085 15.7313 19.0252 15.5788 19.1776 15.4147L23.3298 11.2635C24.0453 10.5482 24.3854 9.71562 23.3298 8.66024C22.2859 7.61658 21.4531 7.95662 20.7376 8.67194Z" fill="#FF5200" stroke="#111111" stroke-width="1.2" stroke-miterlimit="10" stroke-linecap="round" stroke-linejoin="round"/>
<path d="M5.5 10H8.5" stroke="#111111" stroke-width="1.2" stroke-linecap="round"/>
<path d="M5.5 12H8.5" stroke="#111111" stroke-width="1.2" stroke-linecap="round"/>
</svg>
