<svg width="24" height="24" viewBox="0 0 24 24" fill="none" xmlns="http://www.w3.org/2000/svg">
<path d="M6 5C6 2.79086 7.79086 1 10 1H14C16.2091 1 18 2.79086 18 5V10H6V5Z" fill="#FF5200" stroke="#111111" stroke-width="1.2"/>
<path d="M9 14L12 12L15 14L14 17L10.5 17.5L9 14Z" fill="#FF5200"/>
<path d="M18.0284 8.87615L17.8839 8.80563L16.48 8.01985L13.569 6.37778C12.6813 5.87407 11.3187 5.87407 10.431 6.37778L7.52 8.00978L6.11613 8.8157L5.93032 8.90637C4.12387 10.0951 4 10.3167 4 12.2207V16.7742C4 18.6782 4.12387 18.8999 5.97161 20.1188L10.431 22.6273C10.8748 22.8892 11.4323 23 12 23C12.5574 23 13.1252 22.8791 13.569 22.6273L18.0697 20.0886C19.8865 18.8999 20 18.6883 20 16.7742V12.2207C20 10.3167 19.8761 10.0951 18.0284 8.87615ZM14.88 14.4471L14.2503 15.2027C14.1471 15.3135 14.0748 15.525 14.0852 15.6761L14.1471 16.6433C14.1884 17.2376 13.7548 17.5399 13.1871 17.3283L12.2684 16.9656C12.1239 16.9153 11.8865 16.9153 11.7419 16.9656L10.8232 17.3182C10.2555 17.5399 9.82194 17.2276 9.86323 16.6332L9.92516 15.6661C9.93548 15.515 9.86323 15.3034 9.76 15.1926L9.12 14.4471C8.72774 13.9938 8.90323 13.4901 9.49161 13.339L10.4516 13.0972C10.6065 13.0569 10.7819 12.9159 10.8645 12.795L11.4013 11.989C11.7316 11.4853 12.2581 11.4853 12.5987 11.989L13.1355 12.795C13.2181 12.9259 13.4039 13.0569 13.5484 13.0972L14.5084 13.339C15.0968 13.4901 15.2723 13.9938 14.88 14.4471Z" fill="white" stroke="#111111" stroke-width="1.2"/>
</svg>
