<svg width="24" height="32" viewBox="0 0 24 32" fill="none" xmlns="http://www.w3.org/2000/svg">
<path d="M12 31.9999C11.6938 32.0022 11.3946 31.9087 11.144 31.7325C10.8933 31.5562 10.7038 31.3059 10.6017 31.0165C9.03652 26.6907 3.19827 20.2149 3.13566 20.1469L3.09913 20.0998C1.54178 18.3731 0.517571 16.2304 0.150716 13.9316C-0.216138 11.6328 0.0901156 9.27674 1.03234 7.14901C1.97457 5.02128 3.5123 3.21332 5.45906 1.94437C7.40581 0.675425 9.67797 0 12 0C14.322 0 16.5942 0.675425 18.5409 1.94437C20.4877 3.21332 22.0254 5.02128 22.9677 7.14901C23.9099 9.27674 24.2161 11.6328 23.8493 13.9316C23.4824 16.2304 22.4582 18.3731 20.9009 20.0998L20.8643 20.1469C20.8017 20.2149 14.9635 26.6907 13.3983 31.0165C13.2969 31.3064 13.1075 31.5571 12.8567 31.7335C12.6059 31.9098 12.3063 32.003 12 31.9999Z" fill="white"/>
<path d="M23 12.0239C23 9.10015 21.8411 6.29619 19.7782 4.22881C17.7153 2.16144 14.9174 1 12 1C9.08262 1 6.28472 2.16144 4.22182 4.22881C2.15892 6.29619 1 9.10015 1 12.0239C1.00008 14.7731 2.03011 17.4221 3.88619 19.4466C3.88619 19.4466 9.92571 26.1082 11.5914 30.7014C11.6211 30.7885 11.6772 30.8641 11.7518 30.9177C11.8265 30.9712 11.916 31 12.0079 31C12.0997 31 12.1892 30.9712 12.2639 30.9177C12.3385 30.8641 12.3946 30.7885 12.4243 30.7014C14.09 26.1082 20.1243 19.4466 20.1243 19.4466C21.977 17.4208 23.0033 14.7718 23 12.0239Z" fill="#9200B7"/>
<g clip-path="url(#clip0_1_9516)">
<circle cx="12" cy="12" r="9" fill="#9200B7"/>
<path d="M7 12.825V15.795C7 16.73 7.86875 17.5 8.9375 17.5H15.0625C16.125 17.5 17 16.7355 17 15.795V12.825C17 12.671 16.8625 12.55 16.6875 12.55H7.3125C7.1375 12.55 7 12.671 7 12.825ZM10.05 15.509C9.90625 15.641 9.70625 15.7125 9.5 15.7125C9.45 15.7125 9.4 15.707 9.35 15.7015C9.3 15.6905 9.25 15.6795 9.2 15.6575C9.15625 15.641 9.10625 15.619 9.06875 15.597C9.025 15.5695 8.98125 15.542 8.95 15.509C8.8 15.3825 8.71875 15.2065 8.71875 15.025C8.71875 14.8435 8.8 14.6675 8.95 14.541C8.98125 14.508 9.025 14.4805 9.06875 14.453C9.10625 14.431 9.15625 14.409 9.2 14.3925C9.25 14.3705 9.3 14.3595 9.35 14.3485C9.6 14.3045 9.86875 14.3815 10.05 14.541C10.2 14.6675 10.2812 14.8435 10.2812 15.025C10.2812 15.2065 10.2 15.3825 10.05 15.509ZM15.05 15.509C15.0187 15.542 14.975 15.5695 14.9313 15.597C14.8938 15.619 14.8437 15.641 14.8 15.6575C14.75 15.6795 14.7 15.6905 14.6562 15.7015C14.6 15.707 14.55 15.7125 14.5 15.7125C14.45 15.7125 14.4 15.707 14.35 15.7015C14.3 15.6905 14.25 15.6795 14.2 15.6575C14.1563 15.641 14.1063 15.619 14.0688 15.597C14.025 15.5695 13.9812 15.542 13.95 15.509C13.8 15.3825 13.7188 15.2065 13.7188 15.025C13.7188 14.8435 13.8 14.6675 13.95 14.541C13.9812 14.508 14.025 14.4805 14.0688 14.453C14.1063 14.431 14.1563 14.409 14.2 14.3925C14.25 14.3705 14.3 14.3595 14.35 14.3485C14.45 14.332 14.55 14.332 14.6562 14.3485C14.7 14.3595 14.75 14.3705 14.8 14.3925C14.8437 14.409 14.8938 14.431 14.9313 14.453C14.975 14.4805 15.0187 14.508 15.05 14.541C15.2 14.6675 15.2812 14.8435 15.2812 15.025C15.2812 15.2065 15.2 15.3825 15.05 15.509Z" fill="white"/>
<path d="M15.0625 6.5H8.9375C7.86875 6.5 7 7.2645 7 8.205V9.525C7 9.679 7.1375 9.8 7.3125 9.8H16.6875C16.8625 9.8 17 9.679 17 9.525V8.205C17 7.2645 16.1312 6.5 15.0625 6.5ZM13.5625 8.5625H10.4375C10.1813 8.5625 9.96875 8.3755 9.96875 8.15C9.96875 7.9245 10.1813 7.7375 10.4375 7.7375H13.5625C13.8187 7.7375 14.0312 7.9245 14.0312 8.15C14.0312 8.3755 13.8187 8.5625 13.5625 8.5625Z" fill="white"/>
<path d="M16.6875 12.0001H7.3125C7.1375 12.0001 7 11.8791 7 11.7251V10.6251C7 10.4711 7.1375 10.3501 7.3125 10.3501H16.6875C16.8625 10.3501 17 10.4711 17 10.6251V11.7251C17 11.8791 16.8625 12.0001 16.6875 12.0001Z" fill="white"/>
</g>
<defs>
<clipPath id="clip0_1_9516">
<rect width="18" height="18" fill="white" transform="translate(3 3)"/>
</clipPath>
</defs>
</svg>
