<svg width="18" height="18" viewBox="0 0 18 18" fill="none" xmlns="http://www.w3.org/2000/svg">
<g clip-path="url(#clip0_1_9390)">
<circle cx="9" cy="9" r="9" fill="#9200B7"/>
<path d="M4 9.82505V12.795C4 13.73 4.86875 14.5 5.9375 14.5H12.0625C13.125 14.5 14 13.7355 14 12.795V9.82505C14 9.67105 13.8625 9.55005 13.6875 9.55005H4.3125C4.1375 9.55005 4 9.67105 4 9.82505ZM7.05 12.509C6.90625 12.641 6.70625 12.7125 6.5 12.7125C6.45 12.7125 6.4 12.707 6.35 12.7015C6.3 12.6905 6.25 12.6795 6.2 12.6575C6.15625 12.641 6.10625 12.619 6.06875 12.597C6.025 12.5695 5.98125 12.542 5.95 12.509C5.8 12.3825 5.71875 12.2065 5.71875 12.025C5.71875 11.8435 5.8 11.6675 5.95 11.541C5.98125 11.508 6.025 11.4805 6.06875 11.453C6.10625 11.431 6.15625 11.409 6.2 11.3925C6.25 11.3705 6.3 11.3595 6.35 11.3485C6.6 11.3045 6.86875 11.3815 7.05 11.541C7.2 11.6675 7.28125 11.8435 7.28125 12.025C7.28125 12.2065 7.2 12.3825 7.05 12.509ZM12.05 12.509C12.0187 12.542 11.975 12.5695 11.9313 12.597C11.8938 12.619 11.8437 12.641 11.8 12.6575C11.75 12.6795 11.7 12.6905 11.6562 12.7015C11.6 12.707 11.55 12.7125 11.5 12.7125C11.45 12.7125 11.4 12.707 11.35 12.7015C11.3 12.6905 11.25 12.6795 11.2 12.6575C11.1563 12.641 11.1063 12.619 11.0688 12.597C11.025 12.5695 10.9812 12.542 10.95 12.509C10.8 12.3825 10.7188 12.2065 10.7188 12.025C10.7188 11.8435 10.8 11.6675 10.95 11.541C10.9812 11.508 11.025 11.4805 11.0688 11.453C11.1063 11.431 11.1563 11.409 11.2 11.3925C11.25 11.3705 11.3 11.3595 11.35 11.3485C11.45 11.332 11.55 11.332 11.6562 11.3485C11.7 11.3595 11.75 11.3705 11.8 11.3925C11.8437 11.409 11.8938 11.431 11.9313 11.453C11.975 11.4805 12.0187 11.508 12.05 11.541C12.2 11.6675 12.2812 11.8435 12.2812 12.025C12.2812 12.2065 12.2 12.3825 12.05 12.509Z" fill="white"/>
<path d="M12.0625 3.5H5.9375C4.86875 3.5 4 4.2645 4 5.205V6.525C4 6.679 4.1375 6.8 4.3125 6.8H13.6875C13.8625 6.8 14 6.679 14 6.525V5.205C14 4.2645 13.1312 3.5 12.0625 3.5ZM10.5625 5.5625H7.4375C7.18125 5.5625 6.96875 5.3755 6.96875 5.15C6.96875 4.9245 7.18125 4.7375 7.4375 4.7375H10.5625C10.8187 4.7375 11.0312 4.9245 11.0312 5.15C11.0312 5.3755 10.8187 5.5625 10.5625 5.5625Z" fill="white"/>
<path d="M13.6875 9.0001H4.3125C4.1375 9.0001 4 8.8791 4 8.7251V7.6251C4 7.4711 4.1375 7.3501 4.3125 7.3501H13.6875C13.8625 7.3501 14 7.4711 14 7.6251V8.7251C14 8.8791 13.8625 9.0001 13.6875 9.0001Z" fill="white"/>
</g>
<defs>
<clipPath id="clip0_1_9390">
<rect width="18" height="18" fill="white"/>
</clipPath>
</defs>
</svg>
