<svg width="20" height="20" viewBox="0 0 20 20" fill="none" xmlns="http://www.w3.org/2000/svg">
<path d="M17 5.3176C14.41 5.06093 11.8044 4.92871 9.20667 4.92871C7.66667 4.92871 6.12667 5.00649 4.58667 5.16204L3 5.3176" stroke="#555555" stroke-width="2" stroke-linecap="round" stroke-linejoin="round"/>
<path d="M7.27783 4.53217L7.44894 3.51328C7.57339 2.77439 7.66672 2.22217 8.98117 2.22217H11.0189C12.3334 2.22217 12.4345 2.8055 12.5512 3.52106L12.7223 4.53217" stroke="#555555" stroke-width="2" stroke-linecap="round" stroke-linejoin="round"/>
<path d="M16 7.77539L15.4307 15.6076C15.3343 16.8287 15.2555 17.7776 12.8117 17.7776H7.18832C4.74453 17.7776 4.66569 16.8287 4.56934 15.6076L4 7.77539" stroke="#555555" stroke-width="2" stroke-linecap="round" stroke-linejoin="round"/>
<path d="M8.70117 13.5H11.2912" stroke="#555555" stroke-width="2" stroke-linecap="round" stroke-linejoin="round"/>
<path d="M8.05566 10.3887H11.9446" stroke="#555555" stroke-width="2" stroke-linecap="round" stroke-linejoin="round"/>
</svg>
