<svg width="18" height="18" viewBox="0 0 18 18" fill="none" xmlns="http://www.w3.org/2000/svg">
<g clip-path="url(#clip0_1_9427)">
<circle cx="9" cy="9" r="9" fill="#00ACB7"/>
<path d="M9 3C5.688 3 3 5.688 3 9C3 12.312 5.688 15 9 15C12.312 15 15 12.312 15 9C15 5.688 12.312 3 9 3ZM9.198 12C9.09 12.036 8.904 12.036 8.796 12C7.86 11.682 5.76 10.344 5.76 8.076C5.76 7.074 6.564 6.264 7.56 6.264C8.148 6.264 8.67 6.546 9 6.99C9.324 6.552 9.852 6.264 10.44 6.264C11.436 6.264 12.24 7.074 12.24 8.076C12.24 10.344 10.14 11.682 9.198 12Z" fill="white"/>
</g>
<defs>
<clipPath id="clip0_1_9427">
<rect width="18" height="18" fill="white"/>
</clipPath>
</defs>
</svg>
